<?xml version="1.0" encoding="utf-8"?>
<!-- Generator: Adobe Illustrator 27.5.0, SVG Export Plug-In . SVG Version: 6.00 Build 0)  -->
<svg version="1.1" id="_x2018_лой_x5F_1" xmlns="http://www.w3.org/2000/svg" xmlns:xlink="http://www.w3.org/1999/xlink"
	 x="0px" y="0px" viewBox="0 0 3200 2000" style="enable-background:new 0 0 3200 2000;" xml:space="preserve">
<rect style="fill:transparent;" width="3200" height="2000"/>
<g>
	<path style="fill:#EBF3FA;" d="M2922.497,1739.969l-584.687-1.82l-2090.41-6.48c0,0-233.639-306.41-48.109-648.779
		c51.58-95.187,93.075-149.036,131.268-185.64c0.012,0,0.012-0.012,0.012-0.012c64.202-61.556,119.083-74.397,196.914-153.029
		c42.393-42.83,91.594-105.175,152.822-205.543c75.416-123.635,162.386-207.328,252.997-261.177
		c198.346-117.845,414.206-92.638,564.977-29.977c219.634,91.303,278.241,246.48,798.677,155.93
		c520.424-90.55,704.279,270.522,629.531,621.29c-8.192,38.424-11.384,72.139-10.947,102.25c0.304,21.699,2.512,41.531,6.104,59.894
		C2958.53,1375.571,3141.621,1410.063,2922.497,1739.969z"/>
	<path style="fill:#2E3552;" d="M3088.771,1739.97H122.208c-2.327,0-4.23-1.903-4.23-4.229v-3.966c0-2.326,1.903-4.229,4.23-4.229
		h2966.563c2.326,0,4.229,1.903,4.229,4.229v3.966C3093,1738.066,3091.097,1739.97,3088.771,1739.97z"/>
	<path style="fill:#233862;" d="M2922.497,1739.969l-584.687-1.82c-14.916-280.959-299.616-550.1-711.31-446.332
		c-416.326,104.935-418.244-412.773-688.159-500.13C670.32,704.922,335.257,894.579,330.572,897.237
		c99.167-95.077,176.101-73.948,349.737-358.572c240.508-394.229,598.328-382.445,817.974-291.154
		c219.634,91.303,278.241,246.48,798.677,155.93c520.424-90.55,704.279,270.522,629.531,621.29
		C2851.741,1375.499,3192.534,1333.409,2922.497,1739.969z"/>
	<g>
		<g>
			<path style="fill:#FFB27D;" d="M957.002,1115.15c0,0,8.644-10.488,13.291-11.961c4.647-1.473,13.644-8.436,14.817-5.564
				c1.173,2.87-6.045,7.292-5.665,10.572c0.38,3.279,22.951,8.543,22.812,12.014c-0.139,3.471-5.31,11.857-13.919,10.896
				c-8.608-0.963-30.441-6.145-34.925-3.906C948.93,1129.438,957.002,1115.15,957.002,1115.15z"/>
			<path style="fill:#AEC3FF;" d="M724.231,1064.129c12.743,17.12,27.665,30.641,42.995,41.299
				c48.727,33.9,101.585,38.95,101.585,38.95c12.668-4.056,51.579-8.29,74.574-11.995h0.009c10.024-1.61,17.017-3.126,17.49-4.472
				l-0.578-20.029c0,0-84.398-4.462-98.373-10.944c-22.038-18.986-41.508-43.638-54.194-62.899
				c-10.716-16.268-22.71-28.281-42.484-35.331C736.662,988.513,684.665,1010.977,724.231,1064.129z"/>
			<path style="fill:#94B0ED;" d="M762.925,1092.827l4.301,12.601c48.727,33.9,101.585,38.95,101.585,38.95
				c10.176,0,51.579-8.29,74.574-11.995c-0.91,0.076-62.607,4.898-76.241,3.487c-13.738-1.422-77.691-56.847-77.691-56.847
				L762.925,1092.827z"/>
			<path style="fill:#233862;" d="M818.023,1727.545h-93.27c-6.683-4.531,1.803-48.838,1.803-48.838s25.455-9.658,29.852,9.982
				c4.41,19.628,32.423,25.869,47.249,28.264C813.803,1718.604,817.008,1724.177,818.023,1727.545z"/>
			<path style="fill:#233862;" d="M679.695,1727.545h-93.27c-6.682-4.531,1.803-48.838,1.803-48.838s25.456-9.658,29.853,9.982
				c4.41,19.628,32.423,25.869,47.248,28.264C675.475,1718.604,678.681,1724.177,679.695,1727.545z"/>
			<path style="fill:#F99746;" d="M792.929,1275.545c0,0-4.192,52.305-9.12,115.177c-6.697,85.406-24.76,297.161-24.76,297.161
				s-11.842,10.104-38.072,4.576c0,0-22.327-73.051-29.003-156.429c-0.104-1.367-0.207-2.743-0.311-4.12
				c-6.211-84.879-15.868-263.611-15.868-263.611L792.929,1275.545z"/>
			<path style="fill:#ED7D2B;" d="M794.359,1257.472c0,0-5.623,70.378-10.55,133.25l-91.834,145.309
				c-0.104-1.367-0.207-2.743-0.311-4.12c-6.211-84.879-15.868-263.611-15.868-263.611L794.359,1257.472z"/>
			<path style="fill:#F99746;" d="M767.593,1257.472c0,0-66.604,165.792-87.897,228.638c-15.167,44.766-57.94,201.807-57.94,201.807
				s-18.6,5.661-34.232-5.281c0,0-15.914-160.443,16.231-205.684c17.054-24.002,4.238-249.504,73.385-251.435
				C746.286,1223.586,767.593,1257.472,767.593,1257.472z"/>
			<path style="fill:#FFB27D;" d="M737.842,1013.065c-10.168,5.355-20.092,5.69-28.694,3.863c-7.87-1.655-14.627-5.129-19.44-8.205
				c-4.939-3.157-7.843-5.907-7.843-5.907s0.344-0.497,0.923-1.475c3.003-5.138,12.113-23.61,8.06-53.29
				c-0.054-0.389,2.886,0.163,7.327,1.212c13.217,3.13,39.785,10.666,40.961,11c0.027,0,0.045,0,0.045,0s0.326,6.242,1.42,17.432
				c0.09,0.986,0.19,2.017,0.298,3.084c0.136,1.312,0.271,2.705,0.435,4.134C742.564,996.547,737.842,1013.065,737.842,1013.065z"/>
			<path style="fill:#ED975D;" d="M740.601,977.695c-19.729,4.523-49.174-24.605-49.174-24.605c2.153-1.601,4.414-2.868,6.748-3.827
				c13.217,3.13,39.785,10.666,40.961,11c0.027,0,0.045,0,0.045,0S739.506,966.505,740.601,977.695z"/>
			<path style="fill:#FFB27D;" d="M747.304,958.685c0,0-8.113,2.912-18.456,4.302c-15.125,2.042-35.015,0.838-41.263-17.462
				c-10.524-30.803-23.967-49.272,7.002-61.85c16.579-6.733,27.185-7.091,34.389-4.521c6.259,2.217,9.949,6.648,12.743,11.031
				C747.733,899.614,759.831,953.294,747.304,958.685z"/>
			<path style="fill:#A9453D;" d="M766.096,892.619c-17.933,12.889-42.739,0.218-50.449,3.648
				c-7.702,3.421-9.086,16.341-9.224,20.441c-0.139,4.108-0.679,7.572-11.139,5.114c-1.714-0.401-2.949-0.283-3.798,0.227
				c-4.339,2.574,1.206,15.052,2.878,17.753c0,0,2.407,8.938-2.934,13.289c-0.646,0.52-11.139,5.106-36.423-33.588
				c-3.974-6.074-7.768-19.757-1.63-32.931c6.129-13.174,31.756-25.908,53.484-32.656c8.144-2.531,14.181-2.438,18.904-0.705
				c7.878,2.879,12.079,10.325,16.247,17.804C749.002,883.578,766.096,892.619,766.096,892.619z"/>
			<path style="fill:#AEC3FF;" d="M803.346,1229.552c-1.44,19.002-5.458,32.61-14.255,32.61c0,0-39.133,13.773-85.9,14.142
				c-9.141,0.065-22.087-1.711-32.823-3.511c-10.966-1.857-19.648-3.732-19.648-3.732c-9.402-2.168-19.779-7.979-18.388-18.698
				c0.786-6.072,1.333-13.978,1.71-23.167c1.031-24.837,0.859-59.06,0.99-91.817c0.09-20.123,0.286-39.681,0.957-56.179
				c0,0-9.23-64.812,1.023-75.441c12.005-12.439,47.267-16.261,49.477-15.786c0.663-0.139,1.326-0.303,2.005-0.417
				c0,0,30.033,16.923,52.341,4.395c0,0,0.212,0.041,0.63,0.098c5.434,0.859,32.553,7.128,41.915,17.029
				c3.232,3.404,16.129,24.329,16.482,47.309c0.491,32.029-0.761,68.42-0.761,68.429c0.336,5.204,0.892,11.906,1.506,19.566
				c0.654,8.158,1.375,17.373,1.988,26.98c0.303,4.845,0.589,9.787,0.818,14.729
				C804.107,1201.344,804.319,1216.688,803.346,1229.552z"/>
			<path style="fill:#FFFFFF;" d="M747.539,938.799c0,0,0.648,3.988-8.623,7.17c0,0-7.784,2.673-9.205-1.417
				C729.711,944.552,735.894,938.665,747.539,938.799z"/>
			<path style="fill:#94B0ED;" d="M665.571,1108.472c0,0,0.065,92.7-31.53,118.724c1.031-24.837,0.859-59.06,0.99-91.817
				L665.571,1108.472z"/>
			<path style="fill:#FFB27D;" d="M568.438,1282.003c0,0-16.089,25.257-16.991,34.925c-0.613,6.573,0.863,32.484,4.143,32.574
				c4.631,0.127,9.262-15.991,11.055-20.174c1.793-4.184,3.884-7.47,5.677-7.47c1.792,0-3.884,16.135,0,14.342
				c3.884-1.793,10.458-16.722,11.055-20.313c0.598-3.591-3.506-15.076-1.504-19.598
				C583.876,1291.769,568.438,1282.003,568.438,1282.003z"/>
			<path style="fill:#AEC3FF;" d="M640.074,1000.247c0,0-21.738,10.27-39.965,86.288c-13.741,57.313-40.038,203.65-40.038,203.65
				l22.246,9.151c0,0,81.466-187.035,93.119-213.337C687.089,1059.697,640.074,1000.247,640.074,1000.247z"/>
		</g>
	</g>
	<path style="fill:#2B478B;" d="M2926.49,1024.73c-14.091,66.132-13.411,118.294-4.843,162.144
		c-31.955,4.526-66.059,9.539-102.177,15.061c-257.293,39.347-218.456-272.354-436.913-383.888
		c-218.456-111.546-417.494,87.261-703.09,111.425c-285.596,24.152-271.347-237.934-594.286-283.178
		c-322.927-45.257-557.695,97.915-557.695,97.915c42.393-42.83,91.594-105.175,152.822-205.543
		c25.05-41.058,51.361-77.71,78.681-110.333c1.323-1.59,2.658-3.18,3.993-4.745c6.857-8.071,13.774-15.875,20.766-23.448
		c1.432-1.578,2.888-3.131,4.345-4.685c230.69-246.128,521.456-226.394,710.189-147.944
		c219.634,91.303,278.241,246.48,798.677,155.93C2817.383,312.89,3001.238,673.962,2926.49,1024.73z"/>
	<path style="fill:#1C51A5;" d="M2926.49,1024.73c-8.192,38.424-11.384,72.139-10.947,102.25h-0.012
		c-96.352-24.091-140.104-75.453-158.029-134.545v-0.012c-3.544-11.627-6.068-23.533-7.804-35.609
		c-4.782-33.326-3.521-67.806-0.474-100.283c0.255-2.755,0.534-5.486,0.813-8.205c0.388-3.75,0.788-7.464,1.201-11.141
		c0.219-1.966,0.449-3.908,0.68-5.85c2.609-22.149,5.534-42.866,7.258-61.083v-0.012c1.214-12.804,1.833-24.358,1.323-34.273
		c-0.268-5.182-0.85-9.928-1.809-14.151c-0.243-1.08-0.521-2.136-0.825-3.143c-5.085-17.112-18.047-25.232-35.937-27.805h-0.012
		c-59.833-8.605-174.607,44.771-232.681,30.948c-50.536-12.027-35.875-60.634-44.286-107.979
		c-2.549-14.357-7.209-28.593-16.457-41.652c-6.396-9.066-15.013-17.573-26.651-25.159
		c-83.754-54.614-589.894,40.063-917.614,65.549c-327.709,25.487-189.341-211.199-218.469-280.389
		c-29.14-69.178-105.6,43.704-218.165,36.421c-67.26-4.357-99.35-52.818-114.289-91.121
		c198.346-117.845,414.206-92.638,564.977-29.977c219.634,91.303,278.241,246.48,798.677,155.93
		c344.676-59.966,541.724,78.159,613.777,280.194c0.243,0.667,0.475,1.323,0.704,1.991c1.663,4.709,3.253,9.454,4.771,14.224
		c0.012,0.037,0.023,0.073,0.036,0.109c6.747,21.19,12.173,43.024,16.287,65.367c0.157,0.801,0.304,1.614,0.449,2.415
		c0.765,4.199,1.468,8.411,2.124,12.646c0.254,1.566,0.497,3.144,0.728,4.721C2947.243,861.701,2943.797,943.489,2926.49,1024.73z"
		/>
	<g>
		<path style="fill:#FFB27D;" d="M1456.553,1460.424c1.941,2.224,2.188,4.709,1.227,7.363c0,0.011-0.007,0.026-0.018,0.037
			c-1.777,4.908-7.645,10.39-14.462,15.864c-0.871,0.703-1.646,1.342-2.321,1.935c-0.177,0.155-0.354,0.311-0.521,0.467
			c-0.137,0.121-0.27,0.247-0.401,0.362c-6.357,5.859-3.964,7.202-15.384,19.093c-13.021,13.548-21.987,13.792-24.538,12.558
			c-2.158-1.052,2.226-8.237,7.083-16.314c0.236-0.389,0.466-0.783,0.708-1.177c0.647-1.074,1.29-2.164,1.932-3.244
			c5.693-9.72,4.231-14.28,2.881-28.746c-1.097-11.756-18.288-65.674-18.288-65.674l24.954-4.298c0,0,7.515,42.934,15.795,49.546
			c4.428,3.524,9.383,3.568,13.639,6.182c0.301,0.182,0.596,0.367,0.885,0.559
			C1452.144,1456.539,1454.607,1458.193,1456.553,1460.424z"/>
		<path style="fill:#233862;" d="M1456.553,1460.424c1.941,2.224,2.188,4.709,1.227,7.363c0,0.011-0.007,0.026-0.018,0.037
			c-2.175,4.903-7.896,10.357-14.486,15.813c-0.86,0.715-1.621,1.371-2.297,1.985c-0.177,0.155-0.354,0.311-0.521,0.467
			c-0.137,0.121-0.27,0.247-0.401,0.362c-6.357,5.859-3.964,7.202-15.384,19.093c-13.021,13.548-21.987,13.792-24.538,12.558
			c-2.158-1.052,2.226-8.237,7.083-16.314c2.535-0.929,14.31-5.711,23.212-17.104c7.841-10.005,13.07-22.861,18.409-30.308
			c0.301,0.182,0.596,0.367,0.885,0.559C1452.144,1456.539,1454.607,1458.193,1456.553,1460.424z"/>
		<path style="fill:#FFB27D;" d="M1255.336,1444.838c-1.541,7.703-12.521,6.418-24.787,3.42c-12.268-2.998-9.352,0.566-26.811-1.367
			c-17.458-1.932-22.747-8.441-23.28-11.038c-0.477-2.303,8.15-3.115,17.403-4.182c1.164-0.13,2.333-0.274,3.501-0.418
			c10.447-1.312,18.097-8.053,27.586-13.589c8.989-5.244,22.402-26.609,22.402-26.609l23.943,1.896c0,0-12.564,19.083-17.424,27.38
			c-2.858,4.88-2.707,11.333-2.35,16.316C1255.706,1439.356,1255.882,1442.125,1255.336,1444.838z"/>
		<path style="fill:#233862;" d="M1230.549,1448.258c-12.268-2.998-9.352,0.566-26.811-1.367
			c-17.458-1.932-22.747-8.441-23.28-11.038c-0.477-2.303,8.15-3.115,17.403-4.182l0.087,0.179c0,0,10.47,7.423,25.002,7.771
			c11.844,0.287,24.39-3.105,32.57-2.974c0.185,2.709,0.362,5.478-0.185,8.19
			C1253.795,1452.541,1242.815,1451.256,1230.549,1448.258z"/>
		<path style="fill:#ED7D2B;" d="M1347.091,1291.741l22.382,60.229l29.221,78.64c0,0,7.93,0.766,15.524-1.419
			c6.991-2.021,15.014-7.308,15.014-7.308s-8.114-84.438-23.25-132.907c-3.878-12.441-8.226-22.505-13.023-28.17
			C1369.494,1233.075,1347.091,1291.741,1347.091,1291.741z"/>
		<path style="fill:#F99746;" d="M1369.848,1196.092c14.663-4.73,56.485,1.344,98.497,9.566l8.796-14.508l90.744-7.087
			c0,0,29.944,66.404,13.551,108.716c-2.41,6.219-6.326,10.104-15.34,11.558c-0.003,0.004-38.539,6.329-71.154,2.969
			c-44.89-4.624-95.596-26.284-102.113-27.588c-10.667-2.134-16.581,10.244-27.248,32.646
			c-10.667,22.4-100.271,99.204-100.271,99.204s-13.771,0.137-19.46-1.997c-6.118-2.294-8.356-5.274-8.356-5.274
			S1336.78,1206.759,1369.848,1196.092z"/>
		<path style="fill:#A9453D;" d="M1460.854,1056.813c27.364,24.737,94.11,68.621,94.496,68.468c0,0,21.365,14.37,36.754,8.674
			c25.648-9.494,46.892-46.32,14.388-89.995c-16.21-21.782-30.198-29.411-25.375-56.989c5.225-29.88-6.375-68.398-40.903-71.798
			c-2.886-0.284-20.29-3.543-33.005-0.271C1474.805,923.238,1415.288,1038.986,1460.854,1056.813z"/>
		<path style="fill:#FFB27D;" d="M1501.447,1039.422c-0.16,0.057,14.855,10.873,26.386,8.713
			c10.845-2.022,22.098-16.425,21.954-16.468c-4.419-1.261-8.402-6.323-6.132-32.843l-2.063,0.233l-34.702,3.962
			c0,0-0.104,10.81-0.912,20.936C1505.305,1032.457,1503.468,1038.674,1501.447,1039.422z"/>
		<path style="fill:#ED975D;" d="M1506.89,1003.019c0,0-0.104,10.81-0.912,20.936c19.153,1.027,30.683-15.575,35.613-24.898
			L1506.89,1003.019z"/>
		<path style="fill:#FFB27D;" d="M1499.723,1012.082c0,0,45.149,4.452,47.489-23.706c2.34-28.159,9.743-46.549-18.984-50.582
			c-28.728-4.034-35.228,6.246-38.295,15.455C1486.865,962.456,1488.039,1010.198,1499.723,1012.082z"/>
		<path style="fill:#A9453D;" d="M1504.56,933.348c0,0,5.686,34.4,31.399,42.564c18.758,5.955,27.254,2.028,27.254,2.028
			s-9.031-11.977-12.239-28.621c-0.945-4.906-4.436-8.943-9.182-10.505C1528.462,934.429,1512.31,922.438,1504.56,933.348z"/>
		<path style="fill:#A9453D;" d="M1513.067,940.686c0,0-8.507,1.896-16.048,12.875c-4.121,6-8.894,21.125-8.079,27.821
			c0,0-7.902-31.839,3.62-43.683C1504.778,925.14,1513.067,940.686,1513.067,940.686z"/>
		<path style="fill:#F9DDBF;" d="M1583.408,1133.729c-0.801,3.422-1.493,6.565-2.051,9.466c-0.922,4.685-1.553,8.727-2.002,12.282
			c-1.383,11.105-0.958,17.683-1.893,24.892c-0.522,4.018-1.469,8.241-3.374,13.545c-1.869,5.158-50.937,9.758-78.851,7.9
			c-8.859-0.57-15.62-1.82-18.011-3.896c-7.67-6.663-8.848,3.095-9.6-33.679c-0.23-10.959-0.413-26.057-0.728-46.956
			c-0.061-3.896,0.182-7.755,0.68-11.554c5.085-39.48,36.98-72.382,36.98-72.382s3.702,18.496,41.713-4.066
			c1.347-0.789,35.232,11.251,42.356,25.912C1595.811,1069.963,1587.886,1114.953,1583.408,1133.729z"/>
		<path style="fill:#F99746;" d="M1369.474,1351.97l29.221,78.64c0,0,7.93,0.766,15.524-1.419
			c6.991-2.021,15.014-7.308,15.014-7.308s-8.114-84.438-23.25-132.907L1369.474,1351.97z"/>
		<path style="fill:#FFFFFF;" d="M1510.143,995.477c0,0-1.892,4.63-6.891,4.63c-5,0-6.351-0.747-7.296-1.807
			s-1.885-3.098-1.885-3.098S1502.355,993.566,1510.143,995.477z"/>
		<path style="fill:#EDC39D;" d="M1575.13,1096.603c0,0-32.028,53.049-64.991,59.93c-21.069,4.394-35.123,6.651-42.514,7.707
			c-0.23-10.959-0.413-26.057-0.728-46.956c-0.061-3.896,0.182-7.755,0.68-11.554c11.869-1.433,38.91-7.076,64.226-29.286
			L1575.13,1096.603z"/>
		<path style="fill:#F9DDBF;" d="M1504.557,1033.348c0,0-26.849,0.834-41.135,10.721c-10.444,7.228-38.836,38.281-38.836,38.281
			l2.157,14.25l10.384,6.659l38.836-11.589L1504.557,1033.348z"/>
		<g>
			<path style="fill:#AEC3FF;" d="M1311.383,1103.333c-11.304-36.663,9.254-75.549,45.917-86.852
				c36.663-11.304,75.548,9.254,86.852,45.918c11.304,36.663-9.254,75.548-45.917,86.852
				C1361.572,1160.555,1322.687,1139.996,1311.383,1103.333z"/>
			<g>
				
					<ellipse transform="matrix(0.9996 -0.0294 0.0294 0.9996 -30.5786 39.6322)" style="fill:#94B0ED;" cx="1333.692" cy="1060.633" rx="9.61" ry="9.61"/>
				<path style="fill:#94B0ED;" d="M1394.162,1031.408c0-1.842,1.493-3.335,3.335-3.335s3.335,1.493,3.335,3.335
					s-1.493,3.335-3.335,3.335S1394.162,1033.25,1394.162,1031.408z"/>
				<path style="fill:#94B0ED;" d="M1394.162,1061.092c0-3.431,2.781-6.212,6.211-6.212c3.431,0,6.211,2.781,6.211,6.212
					c0,3.43-2.781,6.211-6.211,6.211C1396.943,1067.303,1394.162,1064.521,1394.162,1061.092z"/>
				<path style="fill:#94B0ED;" d="M1361.678,1082.35c0-5.146,4.173-9.32,9.32-9.32c5.147,0,9.32,4.174,9.32,9.32
					c0,5.147-4.173,9.32-9.32,9.32C1365.851,1091.67,1361.678,1087.497,1361.678,1082.35z"/>
				<path style="fill:#94B0ED;" d="M1367.89,1133.815c0-2.728,2.211-4.938,4.939-4.938c2.728,0,4.939,2.211,4.939,4.938
					s-2.211,4.939-4.939,4.939C1370.101,1138.755,1367.89,1136.543,1367.89,1133.815z"/>
				<path style="fill:#94B0ED;" d="M1412.474,1104.989c0-1.522,1.234-2.756,2.756-2.756s2.756,1.233,2.756,2.756
					s-1.234,2.757-2.756,2.757S1412.474,1106.512,1412.474,1104.989z"/>
			</g>
		</g>
		<path style="fill:#FFB27D;" d="M1426.743,1112.312l-6.292-7.732c0,0-4.258-3.798-7.348-4.443
			c-3.09-0.646-9.615-4.409-10.248-3.349c-0.632,1.061,5.013,8.624,5.013,8.624l0.287,0.042c-6.48,4.873-22.843,0.57-24.862,2.559
			c-2.447,2.411,3.37,7.621,6.491,10.546c3.121,2.926,12.046,7.804,19.004,5.638c5.086-1.584,13.092-3.194,13.092-3.194
			L1426.743,1112.312z"/>
		<path style="fill:#F9DDBF;" d="M1557.427,1046.874c0,0-45.093,56.506-63.392,60.238c-10.738,2.19-68.633,1.802-68.633,1.802
			l-9.194,16.43c0,0,47.463,19.686,82.5,18.44c43.651-1.551,89.297-60.86,89.297-64.608
			C1588.005,1075.427,1579.031,1042.252,1557.427,1046.874z"/>
		<path style="fill:#FFB27D;" d="M1314.626,1115.053c-0.917-0.365-1.762-1.112-2.374-2.043c-1.589-2.416-4.813-7.975-4.072-12.318
			c0.976-5.713,10.298-13.035,12.52-9.49c2.221,3.545,2.228,16.71,0.356,20.019
			C1319.438,1114.08,1317.677,1116.268,1314.626,1115.053z"/>
	</g>
	<g>
		
			<ellipse transform="matrix(0.7071 -0.7071 0.7071 0.7071 172.6476 2063.2671)" style="fill:#F99746;" cx="2576.907" cy="823.229" rx="247.445" ry="247.444"/>
		<path style="fill:#F9DDBF;" d="M2932.983,767.741c-0.146-0.801-0.292-1.614-0.449-2.415
			c-32.234,12.913-68.79,26.712-108.706,40.985h-0.013c-5.388,1.942-10.825,3.884-16.348,5.825
			c-17.913,6.323-36.458,12.732-55.549,19.2c-43.679,14.782-90.21,29.843-138.586,44.759c-15.499,4.782-30.851,9.43-46.01,13.957
			c-74.044,22.137-143.647,41.264-204.973,56.531h-0.012c-141.221,35.184-238.288,49.917-243.167,34.091
			c-4.515-14.576,70.392-51.823,189.099-97.092c8.568-3.265,17.354-6.578,26.372-9.927h0.013c-0.158-0.801-0.327-1.578-0.485-2.367
			c-0.061-0.304-0.121-0.595-0.17-0.898c-0.037-0.182-0.073-0.364-0.109-0.558c-0.036-0.182-0.061-0.352-0.098-0.522
			c-0.048-0.158-0.072-0.328-0.109-0.485c0-0.024-0.012-0.061-0.023-0.085c-0.013-0.133-0.049-0.255-0.073-0.388
			c-0.024-0.158-0.049-0.316-0.085-0.473c-0.012-0.146-0.049-0.304-0.072-0.461c-0.024-0.133-0.049-0.267-0.073-0.4
			c-0.146-0.765-0.279-1.542-0.413-2.306c-0.121-0.765-0.255-1.541-0.376-2.306c-0.061-0.34-0.121-0.692-0.17-1.032
			c-0.012-0.073-0.024-0.145-0.036-0.206c-0.037-0.218-0.072-0.449-0.109-0.667c-0.023-0.158-0.049-0.303-0.072-0.449
			c-0.013-0.158-0.037-0.304-0.061-0.461c-0.013-0.012-0.013-0.024-0.013-0.048c-0.013-0.037-0.013-0.073-0.013-0.109v-0.049
			c-0.012-0.06-0.012-0.121-0.023-0.194c-0.013-0.037-0.013-0.061-0.024-0.097v-0.012l-0.036-0.218
			c-0.013-0.109-0.037-0.206-0.049-0.328h-0.012c-21.858,8.18-42.745,16.238-62.467,24.103
			c-128.829,51.398-209.294,95.004-203.286,114.398c6.954,22.61,130.115,6.165,304.479-36.919h0.024
			c73.122-18.071,155.286-40.839,241.662-67.37c1.856-0.558,3.713-1.116,5.57-1.699c45.803-14.127,90.064-28.472,132.105-42.721
			c19.03-6.469,37.61-12.913,55.682-19.321c6.287-2.233,12.513-4.454,18.69-6.675c26.737-9.625,52.248-19.128,76.314-28.424
			c11.82-4.563,23.29-9.078,34.383-13.52C2934.451,776.151,2933.748,771.94,2932.983,767.741z M2911.44,685.625
			c-30.511,6.65-63.4,14.418-98.196,23.168c-4.939,1.25-9.927,2.512-14.951,3.798c0.279,0.534,0.521,1.056,0.776,1.59
			c0.024,0.048,0.036,0.097,0.061,0.146c0.024,0.036,0.049,0.073,0.061,0.121c0.013,0.037,0.036,0.073,0.062,0.109
			c0.218,0.437,0.424,0.862,0.618,1.287c0.036,0.085,0.061,0.146,0.097,0.218c0.037,0.073,0.073,0.134,0.109,0.207
			c0.098,0.194,0.183,0.376,0.268,0.57c0.097,0.194,0.193,0.4,0.279,0.595c0,0.012,0.012,0.012,0.012,0.012s0.013,0,0.013,0.012
			c0.352,0.716,0.667,1.444,1.007,2.173c0.012,0.036,0.024,0.085,0.049,0.121c0.023,0.061,0.048,0.109,0.061,0.158
			c0.072,0.146,0.121,0.267,0.182,0.401c0.146,0.303,0.292,0.619,0.425,0.922c0.122,0.267,0.243,0.534,0.364,0.801
			c0.024,0.048,0.036,0.085,0.061,0.133c0.279,0.631,0.546,1.25,0.813,1.881c0.109,0.243,0.206,0.485,0.315,0.728
			c0.049,0.097,0.098,0.194,0.134,0.292c0.036,0.048,0.061,0.109,0.085,0.17c0.072,0.158,0.133,0.315,0.193,0.473
			c0.146,0.304,0.279,0.619,0.4,0.935c3.63-0.946,7.234-1.869,10.814-2.779c36.409-9.309,70.221-17.367,100.66-24.018
			C2914.693,695.08,2913.104,690.334,2911.44,685.625z"/>
		<g>
			<circle style="fill:#ED7D2B;" cx="2419.91" cy="744.037" r="34.23"/>
			
				<ellipse transform="matrix(0.1602 -0.9871 0.9871 0.1602 1591.4747 3150.4326)" style="fill:#ED7D2B;" cx="2647.182" cy="639.939" rx="11.879" ry="11.879"/>
			<circle style="fill:#ED7D2B;" cx="2657.428" cy="745.67" r="22.125"/>
			<path style="fill:#ED7D2B;" d="M2519.596,821.393c0-18.335,14.863-33.198,33.199-33.198c18.334,0,33.197,14.863,33.197,33.198
				c0,18.335-14.863,33.198-33.197,33.198C2534.459,854.591,2519.596,839.728,2519.596,821.393z"/>
			<path style="fill:#ED7D2B;" d="M2541.721,1004.712c0-9.716,7.877-17.593,17.594-17.593s17.593,7.877,17.593,17.593
				c0,9.717-7.876,17.594-17.593,17.594S2541.721,1014.429,2541.721,1004.712z"/>
			<circle style="fill:#ED7D2B;" cx="2710.346" cy="902.034" r="9.818"/>
		</g>
	</g>
	<path style="fill:#F9DDBF;" d="M2535.015,1417.215c59.147-27.812,155.13-66.853,276.496-94.901l-0.291-1.261
		c-232.48,53.727-385.438,134.492-386.858,135.441l0.076,0.129c-2.614,1.414-4.479,4.084-4.709,7.269
		c-0.361,4.963,3.369,9.279,8.333,9.64c2.013,0.146,3.914-0.389,5.493-1.398l0.003,0.004c0.017-0.011,0.138-0.091,0.31-0.203
		c0.021-0.016,0.045-0.029,0.066-0.045C2437.869,1469.31,2474.28,1445.773,2535.015,1417.215z"/>
	<path style="fill:#F9DDBF;" d="M2611.42,1315.829c29.235-13.746,76.676-33.043,136.663-46.906l-0.144-0.624
		c-114.907,26.556-190.509,66.476-191.211,66.944l0.037,0.063c-1.292,0.699-2.213,2.02-2.327,3.594
		c-0.179,2.453,1.665,4.586,4.118,4.764c0.996,0.073,1.936-0.191,2.716-0.691l0.001,0.003c0.009-0.006,0.068-0.045,0.153-0.101
		c0.011-0.008,0.022-0.015,0.033-0.022C2563.405,1341.578,2581.401,1329.944,2611.42,1315.829z"/>
	<g>
		<path style="fill:#F9DDBF;" d="M2289.586,549.509c48.683-22.891,127.684-55.024,227.576-78.11l-0.24-1.038
			c-191.347,44.221-317.241,110.696-318.41,111.478l0.063,0.106c-2.152,1.165-3.686,3.362-3.876,5.983
			c-0.298,4.085,2.773,7.637,6.858,7.934c1.657,0.121,3.222-0.32,4.521-1.151l0.002,0.004c0.014-0.009,0.113-0.075,0.255-0.168
			c0.019-0.012,0.038-0.023,0.056-0.036C2209.63,592.387,2239.598,573.015,2289.586,549.509z"/>
	</g>
	<path style="fill:#F9DDBF;" d="M1782.85,479.558c0-7.536,6.108-13.645,13.644-13.645c7.536,0,13.645,6.109,13.645,13.645
		c0,7.536-6.108,13.644-13.645,13.644C1788.958,493.202,1782.85,487.093,1782.85,479.558z"/>
	<path style="fill:#F9DDBF;" d="M2201.247,1144.305c0-5.499,4.458-9.957,9.957-9.957s9.956,4.458,9.956,9.957
		c0,5.498-4.457,9.956-9.956,9.956S2201.247,1149.803,2201.247,1144.305z"/>
	<path style="fill:#F9DDBF;" d="M1109.413,704.915c-2.675-2.027-3.2-5.838-1.173-8.513s5.838-3.2,8.513-1.173
		c2.675,2.027,3.2,5.838,1.173,8.513S1112.088,706.942,1109.413,704.915z"/>
	<path style="fill:#F9DDBF;" d="M1311.352,650.962c-4.311-3.266-5.157-9.408-1.891-13.719c3.266-4.311,9.408-5.157,13.719-1.891
		c4.311,3.266,5.157,9.409,1.891,13.719C1321.804,653.382,1315.662,654.229,1311.352,650.962z"/>
	<path style="fill:#F99746;" d="M2769.59,1450.602c0-12.273,9.949-22.223,22.223-22.223c12.272,0,22.222,9.949,22.222,22.223
		c0,12.272-9.949,22.222-22.222,22.222C2779.539,1472.823,2769.59,1462.874,2769.59,1450.602z"/>
	<g>
		
			<ellipse transform="matrix(0.7071 -0.7071 0.7071 0.7071 48.2938 1301.6001)" style="fill:#F9DDBF;" cx="1595.317" cy="592.504" rx="118.537" ry="118.537"/>
		<g>
			
				<ellipse transform="matrix(0.7071 -0.7071 0.7071 0.7071 53.091 1237.3076)" style="fill:#F2CCAA;" cx="1520.108" cy="554.567" rx="16.398" ry="16.398"/>
			<path style="fill:#F2CCAA;" d="M1623.291,504.7c0-3.143,2.548-5.691,5.69-5.691c3.144,0,5.691,2.548,5.691,5.691
				c0,3.143-2.548,5.69-5.691,5.69C1625.839,510.39,1623.291,507.842,1623.291,504.7z"/>
			<path style="fill:#F2CCAA;" d="M1623.291,555.35c0-5.854,4.746-10.599,10.6-10.599s10.599,4.746,10.599,10.599
				s-4.745,10.599-10.599,10.599S1623.291,561.203,1623.291,555.35z"/>
			<path style="fill:#F2CCAA;" d="M1567.862,591.625c0-8.783,7.12-15.903,15.904-15.903c8.783,0,15.903,7.12,15.903,15.903
				s-7.12,15.904-15.903,15.904C1574.982,607.528,1567.862,600.408,1567.862,591.625z"/>
			<path style="fill:#F2CCAA;" d="M1578.461,679.443c0-4.654,3.773-8.428,8.428-8.428s8.428,3.773,8.428,8.428
				c0,4.655-3.773,8.428-8.428,8.428S1578.461,684.098,1578.461,679.443z"/>
			<path style="fill:#F2CCAA;" d="M1654.537,630.255c0-2.598,2.105-4.703,4.703-4.703s4.703,2.106,4.703,4.703
				s-2.105,4.703-4.703,4.703S1654.537,632.853,1654.537,630.255z"/>
		</g>
	</g>
	<g>
		<path style="fill:#AEC3FF;" d="M1950.938,567.905c-8.73-27.521,7.147-56.71,35.466-65.196
			c28.318-8.485,58.354,6.947,67.084,34.468c8.731,27.521-7.147,56.71-35.466,65.195
			C1989.704,610.858,1959.67,595.427,1950.938,567.905z"/>
		<g>
			<path style="fill:#94B0ED;" d="M1960.747,535.852c0-3.984,3.323-7.214,7.423-7.214s7.423,3.23,7.423,7.214
				c0,3.984-3.323,7.213-7.423,7.213S1960.747,539.836,1960.747,535.852z"/>
			<path style="fill:#94B0ED;" d="M2014.876,513.915c0-1.382,1.153-2.504,2.576-2.504s2.576,1.121,2.576,2.504
				c0,1.383-1.153,2.503-2.576,2.503S2014.876,515.297,2014.876,513.915z"/>
			<path style="fill:#94B0ED;" d="M2014.876,536.196c0-2.575,2.147-4.663,4.798-4.663c2.649,0,4.798,2.088,4.798,4.663
				c0,2.575-2.148,4.663-4.798,4.663C2017.023,540.859,2014.876,538.771,2014.876,536.196z"/>
			<path style="fill:#94B0ED;" d="M1989.786,552.154c0-3.864,3.223-6.996,7.198-6.996c3.977,0,7.199,3.132,7.199,6.996
				c0,3.864-3.223,6.996-7.199,6.996C1993.009,559.15,1989.786,556.019,1989.786,552.154z"/>
			<path style="fill:#94B0ED;" d="M1994.584,590.787c0-2.048,1.707-3.708,3.814-3.708s3.815,1.66,3.815,3.708
				c0,2.048-1.708,3.708-3.815,3.708S1994.584,592.835,1994.584,590.787z"/>
			<path style="fill:#94B0ED;" d="M2029.02,569.148c0-1.142,0.953-2.069,2.129-2.069s2.129,0.926,2.129,2.069
				c0,1.143-0.953,2.069-2.129,2.069S2029.02,570.292,2029.02,569.148z"/>
		</g>
	</g>
	<path style="fill:#F9DDBF;" d="M1740.505,618.1c0-2.75,2.229-4.979,4.979-4.979c2.749,0,4.978,2.229,4.978,4.979
		s-2.229,4.979-4.978,4.979C1742.733,623.078,1740.505,620.849,1740.505,618.1z"/>
	<path style="fill:#F9DDBF;" d="M1593.053,605.39c0-3.553,2.88-6.434,6.434-6.434c3.553,0,6.434,2.881,6.434,6.434
		c0,3.553-2.881,6.434-6.434,6.434C1595.934,611.824,1593.053,608.943,1593.053,605.39z"/>
	<g>
		
			<ellipse transform="matrix(0.8907 -0.4546 0.4546 0.8907 -117.5346 453.0208)" style="fill:#71BDD1;" cx="883.213" cy="470.904" rx="101.334" ry="101.335"/>
		<path style="fill:#F9DDBF;" d="M788.093,395.455c-1.457,1.553-2.913,3.107-4.345,4.685c5.946,3.119,12.112,6.396,18.471,9.843
			c0.109-0.134,0.207-0.267,0.304-0.401l0.097-0.109l0.121-0.146c0.145-0.206,0.304-0.413,0.461-0.619
			c0.073-0.097,0.158-0.194,0.231-0.292c0.133-0.17,0.279-0.364,0.413-0.534c0.304-0.389,0.607-0.765,0.935-1.141
			c0.024-0.036,0.048-0.073,0.085-0.109c0.012-0.012,0.024-0.036,0.024-0.048c0.085-0.121,0.17-0.23,0.267-0.328
			c0.17-0.206,0.34-0.413,0.51-0.607c0.17-0.206,0.34-0.413,0.51-0.619C799.998,401.705,793.967,398.513,788.093,395.455z
			 M977.069,509.173c-0.024,0.024-0.036,0.049-0.036,0.073l-0.012,0.012c-0.012,0.024-0.024,0.036-0.024,0.06v0.012
			c-0.012,0.024-0.024,0.048-0.024,0.073c-0.037,0.048-0.049,0.109-0.061,0.158c-0.024,0.024-0.024,0.048-0.049,0.073
			c0,0.012,0,0.024-0.012,0.024c-0.024,0.085-0.061,0.158-0.097,0.243c-0.158,0.388-0.328,0.789-0.498,1.177v0.012
			c-0.037,0.061-0.06,0.121-0.085,0.182c-0.012,0.012-0.012,0.024-0.012,0.037c-0.012,0.012-0.024,0.037-0.024,0.049
			c-0.012,0.012-0.012,0.024-0.024,0.048c-0.037,0.073-0.085,0.145-0.109,0.23c-0.036,0.097-0.073,0.182-0.109,0.267
			c-0.024,0.037-0.036,0.085-0.048,0.122c-0.036,0.085-0.085,0.182-0.121,0.267c-0.037,0.085-0.085,0.158-0.122,0.243
			c-0.049,0.121-0.097,0.243-0.158,0.364c-0.049,0.109-0.109,0.23-0.17,0.364c-0.037,0.085-0.085,0.182-0.133,0.291
			c-0.049,0.097-0.097,0.194-0.146,0.292c-0.158,0.364-0.315,0.692-0.497,1.044l0.012,0.012
			c48.279,32.987,78.511,58.11,75.052,63.838c-3.519,5.813-40.621-9.636-93.256-37.599h-0.024
			c-13.775-7.306-28.606-15.462-44.152-24.321c-15.583-8.86-31.883-18.411-48.619-28.509c-27.89-16.833-53.935-33.351-76.739-48.558
			c-8.386-5.571-16.335-10.996-23.787-16.165c-1.335,1.565-2.67,3.155-3.993,4.745c8.192,5.741,16.857,11.663,25.96,17.732
			c22.78,15.243,48.182,31.397,75.246,47.733c32.441,19.576,63.571,37.174,91.436,51.896h0.012
			c45.257,23.921,81.921,40.256,101.728,45.184c8.653,2.148,14.103,2.136,15.62-0.389
			C1073.943,582.283,1036.405,549.903,977.069,509.173z"/>
		<g>
			<path style="fill:#59A1B2;" d="M967.04,458.343c1.87-7.513-2.706-15.119-10.218-16.988s-15.119,2.705-16.988,10.218
				c-1.87,7.513,2.705,15.119,10.218,16.988C957.564,470.431,965.17,465.856,967.04,458.343z"/>
			<path style="fill:#59A1B2;" d="M878.133,392.289c0.648-2.607-0.939-5.247-3.546-5.896c-2.607-0.649-5.247,0.939-5.895,3.546
				c-0.649,2.607,0.938,5.247,3.546,5.896C874.844,396.483,877.484,394.896,878.133,392.289z"/>
			<path style="fill:#59A1B2;" d="M867.677,434.307c1.208-4.856-1.749-9.772-6.604-10.98c-4.857-1.208-9.772,1.749-10.981,6.604
				c-1.209,4.856,1.748,9.772,6.605,10.98C861.552,442.12,866.468,439.163,867.677,434.307z"/>
			<path style="fill:#59A1B2;" d="M906.17,475.842c1.814-7.287-2.623-14.663-9.91-16.477c-7.286-1.813-14.663,2.624-16.476,9.91
				c-1.813,7.287,2.623,14.663,9.91,16.477C896.98,487.565,904.357,483.128,906.17,475.842z"/>
			<path style="fill:#59A1B2;" d="M879.249,546.506c0.961-3.861-1.391-7.771-5.252-8.732c-3.861-0.961-7.771,1.39-8.732,5.251
				c-0.961,3.861,1.391,7.771,5.252,8.731C874.379,552.718,878.288,550.367,879.249,546.506z"/>
			<path style="fill:#59A1B2;" d="M826.292,489.996c0.536-2.155-0.776-4.336-2.931-4.873c-2.155-0.536-4.336,0.776-4.872,2.931
				c-0.536,2.155,0.776,4.336,2.931,4.873C823.575,493.463,825.756,492.151,826.292,489.996z"/>
		</g>
	</g>
	<g>
		<path style="fill:#F9DDBF;" d="M1076.686,627.97c-0.213-3.201,2.209-5.969,5.41-6.182c3.201-0.213,5.969,2.209,6.182,5.41
			c0.213,3.201-2.209,5.969-5.41,6.182C1079.667,633.593,1076.899,631.171,1076.686,627.97z"/>
		<path style="fill:#F9DDBF;" d="M1234.76,628.1c-0.185-2.763,1.906-5.152,4.669-5.336c2.763-0.184,5.152,1.907,5.336,4.669
			c0.184,2.763-1.907,5.152-4.669,5.336C1237.332,632.953,1234.943,630.862,1234.76,628.1z"/>
		<path style="fill:#F9DDBF;" d="M1325.187,433.528c-0.184-2.763,1.906-5.152,4.669-5.335c2.763-0.184,5.152,1.906,5.336,4.669
			c0.184,2.763-1.907,5.151-4.669,5.336C1327.759,438.382,1325.37,436.292,1325.187,433.528z"/>
		<path style="fill:#F9DDBF;" d="M1480.015,406.589c-0.184-2.763,1.907-5.152,4.669-5.336s5.152,1.907,5.336,4.669
			c0.184,2.763-1.907,5.152-4.67,5.335C1482.588,411.442,1480.199,409.352,1480.015,406.589z"/>
		<path style="fill:#F9DDBF;" d="M965.805,726.655c-0.167-2.502,1.727-4.666,4.229-4.832c2.502-0.167,4.666,1.727,4.833,4.229
			c0.167,2.502-1.727,4.666-4.229,4.833C968.136,731.051,965.972,729.158,965.805,726.655z"/>
		<g>
			<polygon style="fill:#F9DDBF;" points="969.143,728.131 968.46,727.361 1082.735,626.006 1082.934,626.008 1239.479,627.932 
				1329.543,432.238 1329.81,432.192 1484.776,405.372 1484.951,406.386 1330.252,433.159 1240.136,628.969 1239.801,628.965 
				1083.12,627.04 			"/>
		</g>
	</g>
	<path style="fill:#DDE7FE;" d="M740.767,563.156c0,0-1.812,22.297-3.831,24.968c-2.862,3.785-18.049,5.169-18.049,5.169
		s13.243,0.64,17.865,5.262c2.862,2.862,5.262,20.27,5.262,20.27s1.239-18.434,5.816-20.824c8.309-4.339,31.921-4.708,31.921-4.708
		s-24.041-1.504-30.444-3.693C742.013,587.108,740.767,563.156,740.767,563.156z"/>
	<path style="fill:#F9DDBF;" d="M1415.52,480.177c0,0-1.812,22.297-3.832,24.968c-2.862,3.785-18.049,5.17-18.049,5.17
		s13.243,0.64,17.864,5.262c2.862,2.862,5.262,20.271,5.262,20.271s1.239-18.434,5.816-20.824
		c8.309-4.339,31.921-4.708,31.921-4.708s-24.041-1.504-30.444-3.693C1416.766,504.129,1415.52,480.177,1415.52,480.177z"/>
	<path style="fill:#F9DDBF;" d="M2739.531,1089.902c0,0-1.812,22.298-3.831,24.969c-2.861,3.784-18.049,5.17-18.049,5.17
		s13.243,0.64,17.864,5.262c2.862,2.861,5.262,20.271,5.262,20.271s1.24-18.435,5.816-20.824c8.309-4.339,31.922-4.708,31.922-4.708
		s-24.041-1.505-30.444-3.693C2740.777,1113.855,2739.531,1089.902,2739.531,1089.902z"/>
	<g>
		<path style="fill:#DDE7FE;" d="M2356.932,1251.406c-1.015-0.642-1.316-1.984-0.675-2.999s1.984-1.317,2.999-0.675
			c1.015,0.642,1.316,1.984,0.676,2.999C2359.289,1251.746,2357.946,1252.048,2356.932,1251.406z"/>
		<g>
			<g>
				<polygon style="fill:#F9DDBF;" points="2262.201,1406.56 2195.087,1303.852 2195.357,1303.487 2273.71,1197.93 
					2369.397,1207.566 2443.631,1172.556 2444.184,1173.731 2369.627,1208.898 2369.447,1208.879 2274.314,1199.297 
					2196.672,1303.898 2263.292,1405.847 				"/>
			</g>
			<g>
				<polygon style="fill:#F9DDBF;" points="2480.18,1260.732 2369.235,1208.821 2369.788,1207.645 2480.733,1259.556 				"/>
			</g>
			<path style="fill:#F9DDBF;" d="M2477.352,1263.433c-1.668-1.055-2.164-3.261-1.109-4.929c1.055-1.667,3.262-2.163,4.929-1.108
				s2.164,3.261,1.109,4.929C2481.225,1263.991,2479.019,1264.487,2477.352,1263.433z"/>
			<path style="fill:#F9DDBF;" d="M2439.749,1175.574c-1.667-1.055-2.163-3.262-1.109-4.929c1.056-1.667,3.262-2.164,4.929-1.109
				c1.668,1.055,2.164,3.262,1.109,4.929C2443.623,1176.133,2441.416,1176.629,2439.749,1175.574z"/>
			<path style="fill:#F9DDBF;" d="M2367.555,1212.875c-2.631-1.664-3.415-5.146-1.75-7.777c1.664-2.631,5.146-3.414,7.777-1.75
				c2.631,1.664,3.414,5.146,1.75,7.777S2370.186,1214.539,2367.555,1212.875z"/>
			<path style="fill:#F9DDBF;" d="M2193.578,1306.985c-1.946-1.231-2.525-3.807-1.295-5.753c1.231-1.945,3.807-2.525,5.752-1.294
				c1.946,1.231,2.525,3.807,1.295,5.752C2198.1,1307.637,2195.523,1308.217,2193.578,1306.985z"/>
			<path style="fill:#F9DDBF;" d="M2260.659,1408.683c-1.945-1.231-2.525-3.807-1.294-5.753c1.23-1.946,3.807-2.525,5.752-1.295
				c1.946,1.231,2.525,3.807,1.295,5.753C2265.181,1409.334,2262.605,1409.913,2260.659,1408.683z"/>
			<path style="fill:#F9DDBF;" d="M2271.988,1201.203c-1.516-0.959-1.968-2.966-1.009-4.481c0.959-1.517,2.966-1.968,4.481-1.009
				c1.517,0.959,1.969,2.966,1.009,4.481C2275.511,1201.711,2273.504,1202.162,2271.988,1201.203z"/>
		</g>
	</g>
	<circle style="fill:#DDE7FE;" cx="1133.462" cy="428.391" r="4.804"/>
	<path style="fill:#DDE7FE;" d="M1128.658,494.952c0-1.894,1.536-3.43,3.43-3.43c1.895,0,3.43,1.536,3.43,3.43
		c0,1.895-1.536,3.43-3.43,3.43C1130.193,498.382,1128.658,496.847,1128.658,494.952z"/>
	<path style="fill:#DDE7FE;" d="M1679.466,819.8c0-1.895,1.535-3.43,3.43-3.43s3.43,1.536,3.43,3.43c0,1.894-1.535,3.43-3.43,3.43
		S1679.466,821.694,1679.466,819.8z"/>
	<path style="fill:#DDE7FE;" d="M1662.685,874.966c0-2.747,2.227-4.974,4.974-4.974c2.748,0,4.975,2.227,4.975,4.974
		c0,2.747-2.227,4.974-4.975,4.974C1664.911,879.94,1662.685,877.713,1662.685,874.966z"/>
	<path style="fill:#DDE7FE;" d="M1988.457,686.773c0-1.894,1.536-3.43,3.431-3.43c1.894,0,3.43,1.536,3.43,3.43
		c0,1.894-1.536,3.43-3.43,3.43C1989.993,690.203,1988.457,688.667,1988.457,686.773z"/>
	<path style="fill:#DDE7FE;" d="M1670.196,437.888c0-3.41,2.765-6.174,6.175-6.174c3.409,0,6.174,2.764,6.174,6.174
		c0,3.41-2.765,6.174-6.174,6.174C1672.961,444.063,1670.196,441.298,1670.196,437.888z"/>
	<path style="fill:#DDE7FE;" d="M2113.522,899.267c0-2.91,2.359-5.269,5.27-5.269s5.269,2.359,5.269,5.269
		c0,2.91-2.358,5.269-5.269,5.269S2113.522,902.177,2113.522,899.267z"/>
	<path style="fill:#DDE7FE;" d="M2548.531,523.929c0-2.91,2.358-5.27,5.269-5.27s5.27,2.359,5.27,5.27
		c0,2.91-2.359,5.269-5.27,5.269S2548.531,526.838,2548.531,523.929z"/>
	<circle style="fill:#DDE7FE;" cx="2627.884" cy="491.757" r="3.775"/>
	<path style="fill:#DDE7FE;" d="M2736.945,608.688c0-1.779,1.442-3.222,3.222-3.222s3.222,1.442,3.222,3.222
		c0,1.78-1.442,3.222-3.222,3.222S2736.945,610.468,2736.945,608.688z"/>
	<path style="fill:#DDE7FE;" d="M1137.319,265.716c0-2.91,2.359-5.27,5.269-5.27c2.91,0,5.269,2.359,5.269,5.27
		c0,2.91-2.359,5.269-5.269,5.269C1139.678,270.985,1137.319,268.625,1137.319,265.716z"/>
	<circle style="fill:#DDE7FE;" cx="1216.672" cy="233.544" r="3.775"/>
	<path style="fill:#DDE7FE;" d="M1325.733,350.476c0-1.779,1.442-3.222,3.222-3.222s3.222,1.442,3.222,3.222
		c0,1.78-1.443,3.222-3.222,3.222S1325.733,352.255,1325.733,350.476z"/>
	<path style="fill:#DDE7FE;" d="M1363.7,719.8c2.22-1.882,5.545-1.608,7.427,0.611c1.882,2.22,1.608,5.545-0.611,7.427
		c-2.22,1.882-5.544,1.608-7.427-0.612C1361.207,725.007,1361.48,721.682,1363.7,719.8z"/>
	<path style="fill:#DDE7FE;" d="M1437.116,756.641c1.59-1.348,3.972-1.152,5.32,0.438c1.348,1.59,1.152,3.972-0.438,5.32
		c-1.59,1.349-3.972,1.152-5.32-0.438C1435.33,760.372,1435.525,757.989,1437.116,756.641z"/>
	<path style="fill:#DDE7FE;" d="M1420.899,918.326c1.357-1.151,3.39-0.983,4.541,0.374c1.151,1.357,0.983,3.39-0.374,4.541
		c-1.357,1.151-3.391,0.983-4.542-0.374C1419.374,921.51,1419.542,919.477,1420.899,918.326z"/>
	<path style="fill:#DDE7FE;" d="M2017.998,1165.221c1.718-2.603,5.22-3.32,7.822-1.604c2.604,1.718,3.321,5.22,1.604,7.822
		c-1.717,2.604-5.219,3.321-7.822,1.604C2016.999,1171.326,2016.281,1167.824,2017.998,1165.221z"/>
	<path style="fill:#DDE7FE;" d="M2104.582,1181.046c1.23-1.865,3.739-2.379,5.604-1.149c1.865,1.23,2.379,3.739,1.149,5.604
		c-1.23,1.864-3.739,2.379-5.604,1.148C2103.866,1185.419,2103.352,1182.91,2104.582,1181.046z"/>
	<path style="fill:#DDE7FE;" d="M2099.341,1268.292c0-1.907,1.546-3.453,3.452-3.453c1.907,0,3.453,1.546,3.453,3.453
		c0,1.906-1.546,3.452-3.453,3.452C2100.887,1271.744,2099.341,1270.198,2099.341,1268.292z"/>
	<path style="fill:#DDE7FE;" d="M2672.876,1545.51c2.441,1.913,2.87,5.443,0.957,7.886c-1.913,2.441-5.443,2.87-7.886,0.957
		c-2.441-1.913-2.869-5.444-0.957-7.886C2666.904,1544.025,2670.434,1543.597,2672.876,1545.51z"/>
	<path style="fill:#DDE7FE;" d="M2650.183,1630.076c1.749,1.371,2.057,3.9,0.686,5.649c-1.37,1.749-3.899,2.057-5.648,0.686
		c-1.749-1.37-2.057-3.899-0.687-5.648C2645.904,1629.014,2648.434,1628.706,2650.183,1630.076z"/>
	<path style="fill:#DDE7FE;" d="M2477.886,1647.881c1.493,1.17,1.755,3.329,0.586,4.822c-1.17,1.493-3.329,1.755-4.822,0.585
		s-1.755-3.328-0.585-4.821S2476.393,1646.711,2477.886,1647.881z"/>
	<g>
		<path style="fill:#2B478B;" d="M1897.516,1730.724c2.194,0,4.123-1.592,4.478-3.831l113.76-717.863
			c0.395-2.474-1.295-4.801-3.772-5.191c-2.47-0.407-4.797,1.295-5.191,3.773l-113.76,717.863c-0.395,2.474,1.295,4.801,3.772,5.191
			C1897.041,1730.705,1897.281,1730.724,1897.516,1730.724z"/>
		<path style="fill:#2B478B;" d="M1729.505,1730.724c2.194,0,4.122-1.592,4.477-3.831l113.765-717.863
			c0.395-2.474-1.294-4.801-3.772-5.191c-2.469-0.407-4.797,1.295-5.19,3.773l-113.765,717.863
			c-0.395,2.474,1.294,4.801,3.772,5.191C1729.03,1730.705,1729.27,1730.724,1729.505,1730.724z"/>
		<path style="fill:#2B478B;" d="M1831.544,1086.811h168.006c2.51,0,4.54-2.03,4.54-4.539s-2.03-4.539-4.54-4.539h-168.006
			c-2.51,0-4.54,2.03-4.54,4.539S1829.034,1086.811,1831.544,1086.811z"/>
		<path style="fill:#2B478B;" d="M1806.967,1231.434h168.007c2.509,0,4.539-2.03,4.539-4.539c0-2.51-2.03-4.54-4.539-4.54h-168.007
			c-2.509,0-4.539,2.03-4.539,4.54C1802.428,1229.403,1804.458,1231.434,1806.967,1231.434z"/>
		<path style="fill:#2B478B;" d="M1781.911,1404.844h168.007c2.509,0,4.539-2.03,4.539-4.539c0-2.51-2.03-4.539-4.539-4.539
			h-168.007c-2.509,0-4.539,2.029-4.539,4.539C1777.372,1402.813,1779.402,1404.844,1781.911,1404.844z"/>
		<path style="fill:#2B478B;" d="M1756.768,1558.678h163.733c2.509,0,4.539-2.029,4.539-4.539c0-2.509-2.03-4.539-4.539-4.539
			h-163.733c-2.509,0-4.539,2.03-4.539,4.539C1752.229,1556.648,1754.259,1558.678,1756.768,1558.678z"/>
	</g>
	<g>
		<path style="fill:#FFB27D;" d="M1924.138,773.71c0,0,101.404-2.367,111.738-7.712c41.225-21.322,92.753-54.67,92.753-54.67
			l9.896,10.921c0,0-45.938,66.035-81.397,80.904c-27.117,11.37-110.832,22.398-122.312,14.349
			C1923.336,809.453,1927.02,794.03,1924.138,773.71z"/>
		<g>
			<path style="fill:#152949;" d="M1762.091,1337.33c0,0-12.542,11.446-10.095,19.579s13.766,13.554,15.295,23.494
				s7.648,15.362,13.154,15.362s26.252,0,26.252,0s4.053-6.995-5.736-9.104s-13.479-13.789-12.868-24.633
				c0.612-10.844-0.918-25.302-0.918-25.302l-20.801-4.819L1762.091,1337.33z"/>
			<path style="fill:#152949;" d="M1868.247,1343.37c0,0-4.489,49.685,1.018,52.396h70.26c0,0,0.185-9.473-11.134-11.279
				c-11.318-1.808-31.202-8.434-34.567-23.193S1868.247,1343.37,1868.247,1343.37z"/>
			<path style="fill:#ED7D2B;" d="M1925.787,944.256c0,0,13.087,45.621,14.393,67.15c1.305,21.53-31.607,323.473-33.223,333.393
				c-1.521,9.352-13.134,15.313-13.134,15.313s-5.341,3.15-12.963,0.998c-10.575-2.985-13.918-6.561-13.918-6.561
				s-15.813-202.779-6.027-275.216s9.901-135.077,9.901-135.077H1925.787z"/>
			<path style="fill:#F99746;" d="M1839.711,942.37c0,0-30.99,41.581-33.88,69.69c-2.889,28.108-4.532,126.843-10.688,154.244
				c-6.155,27.402-28.77,80.136-28.77,165.604c0,0,2.351,4.898,9.608,7.509c2.321,0.834,5.431,1.644,8.45,2.336
				c5.985,1.372,12.127-1.554,14.858-7.054c15.289-30.783,63.991-130.067,66.488-150.677
				c1.768-14.585,17.145-111.113,50.688-167.755c8.053-13.599-4.942-67.676-4.942-67.676L1839.711,942.37z"/>
		</g>
		<path style="fill:#2C3A64;" d="M1853.685,684.556c-0.204-18.2,6.816-25.905,7.355-28.59c-1.865,1.138,8.063-11.298,8.807-9.496
			c19.543-23.197,64.966,10.903,64.966,10.903l-42.289,75.3c0,0-5.904-10.389-11.579-6.198
			C1872.096,733.007,1854.013,713.819,1853.685,684.556z"/>
		<path style="fill:#FFB27D;" d="M1954.268,818.804c-40.053,18.449-70.165-46.672-67.55-47.339c4.005-4.669,8.134-21.302,5.2-45.245
			l2.077,0.148l34.832,2.658c0,0,0.542,11.137,1.743,21.524c0.796,6.829,1.887,13.339,3.299,16.179
			c0.417,0.839,8.327,0.533,8.346,0.551C1942.801,767.94,1964.953,813.885,1954.268,818.804z"/>
		<path style="fill:#F9DDBF;" d="M1799.818,1005.274c0,0,75.512,53.091,146.192,26.137c0,0,16.308-83.58,27.171-144.954
			c1.397-7.852,2.693-15.352,3.863-22.261c3.273-19.386,5.478-34.159,5.613-39.398c0.16-6-5.921-51.048-19.126-57.627
			c0,0-13.217-1.378-25.716,0.133c0,0,0.993,2.599,2.103,6.641c2.855,10.398-5.002,17.714-14.959,13.575
			c-11.267-4.684-28.253-12.251-34.439-24.63c0,0-30.656,8.034-44.111,61.909C1842.103,842.015,1797.193,979.456,1799.818,1005.274z
			"/>
		<path style="fill:#ED985F;" d="M1928.83,729.031c0,0,0.534,11.129,1.744,21.524c-19.098,1.845-31.28-14.782-36.578-24.181
			L1928.83,729.031z"/>
		<path style="fill:#FFB27D;" d="M1936.354,738.07c0,0-44.939,6.438-48.399-22.466c-3.459-28.905-11.589-47.541,16.957-52.873
			c28.546-5.333,35.452,4.987,38.883,14.345C1947.227,686.434,1947.954,735.651,1936.354,738.07z"/>
		<path style="fill:#2C3A64;" d="M1940.549,661.17c-7.992-7.818-13.025-5.247-15.662-2.262
			c-26.268-10.845-39.682,11.772-39.682,11.772c-0.552,21.122-13.656,34.833-13.656,34.833s8.827,4.191,27.154-3.207
			c5.598-2.26,10.256-7.144,14.033-12.831c-6.088,14.193-15.381,25.037-15.381,25.037c21.324-13.615,26.559-47.155,27.056-50.695
			c3.051,2.198,9.125,7.042,11.419,12.25c3.118,7.079,5.925,22.106,10.149,21.051
			C1945.979,697.118,1952.534,672.896,1940.549,661.17z"/>
		<path style="fill:#FFFFFF;" d="M1922.217,722.903c0.412,0,4.253,3.535,9.329,2.545s5.028-5.09,5.028-5.09s-3.464-0.565-6.51,0
			C1927.019,720.924,1922.217,722.903,1922.217,722.903z"/>
		<g>
			<path style="fill:#FFB27D;" d="M2128.629,711.328c0,0,4.205-8.552,6.875-15.492c1.182-3.071,18.965-15.542,24.09-14.823
				c5.125,0.72,5.927,18.933-3.232,25.41c-4.705,3.327-17.836,15.827-17.836,15.827L2128.629,711.328z"/>
			<path style="fill:#FFB27D;" d="M2128.629,711.328c0,0,1.358-5.788,0.14-7.831c-1.218-2.043,2.299-10.512,3.15-14.286
				c0,0,2.643-0.868,3.018,3.147c0.229,2.45-0.033,8.914-0.033,8.914L2128.629,711.328z"/>
		</g>
		<path style="fill:#F9DDBF;" d="M1954.751,766.59l52.147,3.452c0,0,2.355,40.19-24.237,54.757L1954.751,766.59z"/>
		<path style="fill:#2C3A64;" d="M1869.847,646.47c0,0-17.188-16.263-44.46-8.084c-27.272,8.179-16.287,50.603-38.257,57.799
			c-21.97,7.197-12.5,15.268-15.151,23.922c-2.652,8.654-18.183,30.096,21.59,35.853c39.773,5.756,68.561-9.396,56.818-38.563
			c-11.742-29.166-6.724-69.834,10.653-61.432C1878.417,664.367,1869.847,646.47,1869.847,646.47z"/>
		<g>
			<path style="fill:#FFB27D;" d="M1901.803,804.204c0,0-89.892,58.1-95.615,68.23c-22.831,40.408-41.35,93.354-41.35,93.354
				l-14.728-0.567c0,0,2.734-81.019,24.275-112.871c16.472-24.358,80.5-79.405,94.513-78.952
				C1882.911,773.851,1888.27,788.775,1901.803,804.204z"/>
			<g>
				<path style="fill:#FFB27D;" d="M1764.838,965.788c0,0,3.171,8.987,6.264,15.749c1.369,2.993-2.156,24.425-6.256,27.584
					c-4.099,3.159-17.676-9.007-15.898-20.083c0.912-5.69,1.163-23.817,1.163-23.817L1764.838,965.788z"/>
				<path style="fill:#FFB27D;" d="M1764.838,965.788c0,0,3.187,5.019,5.499,5.577c2.313,0.558,5.905,8.995,8.007,12.244
					c0,0-1.228,2.496-4.359-0.044c-1.911-1.55-6.348-6.259-6.348-6.259L1764.838,965.788z"/>
			</g>
			<path style="fill:#F9DDBF;" d="M1910.063,793.247c0,0-11.724-16.733-23.015-20.76c-11.292-4.026-19.864-18.056-73.73,32.19
				c0,0,6.816,32.587,32.313,47.133C1845.631,851.81,1920.987,812.122,1910.063,793.247z"/>
		</g>
		<path style="fill:#F9DDBF;" d="M1890.521,762.89c0,0-24.317,3.215-34.198,8.951c-9.881,5.735,12.772,18.479,13.38,18.479
			c0.606,0,15.372-10.518,15.574-11.125C1885.479,778.587,1890.521,762.89,1890.521,762.89z"/>
	</g>
	<g>
		<path style="fill:#71BDD1;" d="M2212.832,668.267c0,1.651-0.093,3.281-0.258,4.892c-0.516,4.665-1.734,9.112-3.561,13.23
			c-1.826,4.138-4.272,7.957-7.224,11.321c-8.204,9.422-20.3,15.387-33.798,15.387c-2.343,0-4.634-0.175-6.884-0.526
			c-1.568-0.237-3.106-0.567-4.612-0.97c-5.326-1.403-10.259-3.767-14.604-6.883c-5.841-4.179-10.629-9.731-13.901-16.171
			c-1.031-2.033-1.909-4.138-2.621-6.336c-1.444-4.386-2.219-9.081-2.219-13.942c0-0.929,0.031-1.858,0.093-2.776
			c0.434-7.275,2.611-14.087,6.131-20.02c7.802-13.199,22.178-22.043,38.617-22.043c1.795,0,3.57,0.103,5.314,0.31
			c6.439,0.764,12.467,2.89,17.781,6.088c4.396,2.642,8.287,6.017,11.538,9.959c0.402,0.485,0.794,0.98,1.177,1.486
			C2209.468,648.782,2212.832,658.132,2212.832,668.267z"/>
		<path style="opacity:0.3;fill:#5BAABC;" d="M2191.088,629.824c-12.951,9.443-17.915,29.33-34.376,29.33
			c-12.662,0-23.921,4.396-33.468,6.336c0.434-7.275,2.611-14.087,6.131-20.02c19.587,0.371,34.613-11.445,43.932-21.734
			C2179.746,624.5,2185.773,626.625,2191.088,629.824z"/>
		<path style="opacity:0.3;fill:#5BAABC;" d="M2212.832,668.267c0,1.651-0.093,3.281-0.258,4.892
			c-7.616,5.531-15.975,13.756-24.211,15.243c-13.416,2.404-22.363,1.032-34.406,11.001c-3.643,3.023-7.905,4.592-12.064,5.314
			c-5.841-4.179-10.629-9.731-13.901-16.171c-1.031-2.033-1.909-4.138-2.621-6.336c5.48-0.826,13.323-2.611,21.362-6.542
			c14.799-7.224,32.343-3.777,41.972-13.757c4.86-5.036,10.609-13.499,15.099-20.64
			C2209.468,648.782,2212.832,658.132,2212.832,668.267z"/>
		<path style="opacity:0.3;fill:#5BAABC;" d="M2201.79,697.709c-8.204,9.422-20.3,15.387-33.798,15.387
			c-2.343,0-4.634-0.175-6.884-0.526c-1.568-0.237-3.106-0.567-4.612-0.97c8.462-10.361,23.116-12.466,32.899-11.847
			C2193.266,699.99,2197.683,699.041,2201.79,697.709z"/>
	</g>
	<g>
		<g>
			<rect x="936.988" y="977.157" style="fill:#233862;" width="91.606" height="29.074"/>
			<rect x="964.479" y="940.653" style="fill:#233862;" width="36.623" height="38.777"/>
			<path style="fill:#233862;" d="M1120.511,1727.545c-2.684,0-5.021-1.877-5.394-4.466l-105.527-734.294
				c-0.406-2.826,1.684-5.426,4.666-5.811c2.974-0.389,5.728,1.593,6.136,4.418l105.526,734.294
				c0.407,2.825-1.683,5.426-4.666,5.811C1121.005,1727.529,1120.756,1727.545,1120.511,1727.545z"/>
			<path style="fill:#233862;" d="M842.413,1727.545c-0.245,0-0.493-0.016-0.741-0.048c-2.982-0.385-5.073-2.985-4.667-5.811
				l105.527-734.294c0.407-2.826,3.155-4.797,6.135-4.418c2.983,0.385,5.073,2.985,4.667,5.811l-105.527,734.294
				C847.435,1725.668,845.096,1727.545,842.413,1727.545z"/>
			<path style="fill:#233862;" d="M981.516,1727.545c-3.011,0-5.45-2.312-5.45-5.162V988.088c0-2.85,2.44-5.161,5.45-5.161
				c3.011,0,5.45,2.311,5.45,5.161v734.294C986.966,1725.233,984.526,1727.545,981.516,1727.545z"/>
			<path style="fill:#233862;" d="M981.516,1395.542c-1.236,0-2.472-0.398-3.479-1.189l-82.126-64.501
				c-2.317-1.82-2.638-5.073-0.717-7.269c1.923-2.193,5.358-2.497,7.675-0.677l78.763,61.857l79.121-58.104
				c2.374-1.747,5.8-1.338,7.647,0.916c1.843,2.254,1.41,5.495-0.969,7.242l-82.576,60.64
				C983.872,1395.182,982.694,1395.542,981.516,1395.542z"/>
			<g>
				
					<rect x="1356.358" y="714.634" transform="matrix(-0.9353 0.3539 -0.3539 -0.9353 2932.7444 993.0851)" style="fill:#F99746;" width="38.43" height="100.11"/>
				
					<rect x="1196.302" y="756.613" transform="matrix(-0.9353 0.3539 -0.3539 -0.9353 2759.9468 1097.282)" style="fill:#AEC3FF;" width="166.693" height="88.744"/>
				<polygon style="fill:#AEC3FF;" points="1058.996,923.534 1216.719,869.347 1187.227,791.403 1032.485,853.471 				"/>
				<polygon style="fill:#AEC3FF;" points="899.647,973.424 1057.594,919.829 1034.541,858.902 880.281,922.243 				"/>
				
					<rect x="879.973" y="931.39" transform="matrix(-0.9353 0.3539 -0.3539 -0.9353 2049.4573 1525.6884)" style="fill:#060633;" width="10.536" height="37.656"/>
				
					<rect x="875.045" y="930.773" transform="matrix(-0.9353 0.3539 -0.3539 -0.9353 2040.6069 1530.9886)" style="fill:#F99746;" width="10.536" height="42.62"/>
				<g>
					
						<rect x="1043.011" y="851.046" transform="matrix(0.9353 -0.3539 0.3539 0.9353 -246.7627 427.5854)" style="fill:#F99746;" width="5.459" height="74.911"/>
				</g>
				<g>
					
						<rect x="1199.238" y="785.859" transform="matrix(0.9377 -0.3474 0.3474 0.9377 -213.5905 469.2099)" style="fill:#F99746;" width="5.459" height="89.023"/>
				</g>
			</g>
		</g>
	</g>
</g>
</svg>
