<?xml version="1.0" encoding="UTF-8" standalone="no"?>
<!DOCTYPE svg PUBLIC "-//W3C//DTD SVG 1.1//EN" "http://www.w3.org/Graphics/SVG/1.1/DTD/svg11.dtd">
<!-- Created with Vectornator (http://vectornator.io/) -->
<svg height="100%" stroke-miterlimit="10" style="fill-rule:nonzero;clip-rule:evenodd;stroke-linecap:round;stroke-linejoin:round;" version="1.1" viewBox="0 0 500 500" width="100%" xml:space="preserve" xmlns="http://www.w3.org/2000/svg" xmlns:vectornator="http://vectornator.io" xmlns:xlink="http://www.w3.org/1999/xlink">
<defs/>
<g id="OBJECTS" vectornator:layerName="OBJECTS">
<g opacity="0.45" vectornator:layerName="g">
<path d="M289 373.5C289 327.937 325.937 291 371.5 291C417.063 291 454 327.937 454 373.5C454 419.063 417.063 456 371.5 456C325.937 456 289 419.063 289 373.5Z" fill="#ded7ff" fill-rule="nonzero" opacity="1" stroke="none" vectornator:layerName="circle"/>
<path d="M49 209.5C49 131.904 111.904 69 189.5 69C267.096 69 330 131.904 330 209.5C330 287.096 267.096 350 189.5 350C111.904 350 49 287.096 49 209.5Z" fill="#ded7ff" fill-rule="nonzero" opacity="1" stroke="none" vectornator:layerName="circle"/>
</g>
<path d="M445.913 195.421L441.719 199.261C441.579 199.389 441.457 199.528 441.345 199.673C438.681 197.816 435.752 196.482 432.704 195.677C432.744 195.494 432.774 195.307 432.781 195.115L433.004 189.433C433.073 187.665 431.691 186.17 429.923 186.101L424.241 185.878C422.474 185.809 420.978 187.191 420.909 188.959L420.686 194.641C420.679 194.832 420.694 195.02 420.719 195.205C417.701 195.753 414.754 196.811 412.014 198.383C411.915 198.229 411.805 198.08 411.678 197.94L407.838 193.746C406.643 192.441 404.609 192.351 403.304 193.546L399.11 197.386C397.805 198.581 397.715 200.615 398.911 201.92L402.751 206.114C402.879 206.253 403.018 206.376 403.163 206.488C401.306 209.152 399.972 212.081 399.167 215.129C398.984 215.089 398.797 215.059 398.606 215.052L392.924 214.829C392.073 214.795 391.259 215.093 390.631 215.668C390.627 215.671 390.623 215.675 390.62 215.679C389.991 216.261 389.625 217.053 389.592 217.91L389.369 223.592L389.369 223.592C389.3 225.36 390.682 226.855 392.45 226.924L398.132 227.147C398.324 227.155 398.511 227.138 398.696 227.112C399.244 230.131 400.302 233.078 401.874 235.818C401.72 235.916 401.571 236.026 401.431 236.154L397.237 239.994C395.932 241.189 395.842 243.223 397.038 244.528L400.878 248.722C402.073 250.027 404.107 250.117 405.412 248.921L409.606 245.081C409.746 244.953 409.868 244.814 409.98 244.669C412.645 246.527 415.574 247.861 418.623 248.666C418.583 248.848 418.552 249.034 418.544 249.227L418.321 254.909C418.287 255.766 418.589 256.584 419.171 257.213C419.753 257.843 420.545 258.208 421.401 258.241L427.083 258.464L427.083 258.464C427.962 258.498 428.772 258.174 429.375 257.623C429.985 257.065 430.381 256.273 430.416 255.383L430.639 249.701C430.647 249.509 430.63 249.321 430.604 249.137C433.623 248.589 436.57 247.531 439.31 245.959C439.409 246.113 439.519 246.263 439.647 246.402L443.487 250.596C444.682 251.901 446.716 251.991 448.021 250.796L452.215 246.956C453.52 245.761 453.61 243.727 452.414 242.422L448.574 238.228C448.446 238.088 448.307 237.966 448.162 237.854C450.02 235.19 451.354 232.26 452.159 229.211C452.341 229.251 452.527 229.282 452.72 229.29L458.402 229.513C459.281 229.547 460.092 229.223 460.694 228.672C461.304 228.114 461.7 227.322 461.734 226.432L461.958 220.75C462.027 218.982 460.645 217.487 458.877 217.418L453.195 217.195C453.004 217.187 452.816 217.202 452.63 217.227C452.082 214.209 451.024 211.263 449.452 208.523C449.606 208.425 449.756 208.315 449.895 208.187L454.089 204.347C455.394 203.152 455.484 201.118 454.288 199.813L450.448 195.619C449.251 194.315 447.218 194.226 445.913 195.421ZM435.839 233.287C429.71 238.899 420.158 238.479 414.545 232.35C408.933 226.221 409.353 216.669 415.482 211.056C421.611 205.444 431.163 205.864 436.776 211.993C442.388 218.123 441.968 227.675 435.839 233.287Z" fill="none" opacity="1" stroke="#0f1b63" stroke-linecap="butt" stroke-linejoin="miter" stroke-width="1" vectornator:layerName="path"/>
<g opacity="1" vectornator:layerName="g">
<path d="M114.387 415.756L112.177 415.756C111.769 415.756 111.438 415.425 111.438 415.017C111.438 414.609 111.769 414.278 112.177 414.278L114.387 414.278C114.795 414.278 115.126 414.609 115.126 415.017C115.126 415.425 114.795 415.756 114.387 415.756ZM107.253 415.756L102.328 415.756C101.92 415.756 101.589 415.425 101.589 415.017C101.589 414.609 101.92 414.278 102.328 414.278L107.253 414.278C107.661 414.278 107.992 414.609 107.992 415.017C107.992 415.425 107.661 415.756 107.253 415.756ZM97.403 415.756L92.478 415.756C92.07 415.756 91.739 415.425 91.739 415.017C91.739 414.609 92.07 414.278 92.478 414.278L97.403 414.278C97.811 414.278 98.142 414.609 98.142 415.017C98.142 415.425 97.811 415.756 97.403 415.756ZM87.553 415.756L82.628 415.756C82.22 415.756 81.889 415.425 81.889 415.017C81.889 414.609 82.22 414.278 82.628 414.278L87.553 414.278C87.961 414.278 88.292 414.609 88.292 415.017C88.292 415.425 87.961 415.756 87.553 415.756ZM77.703 415.756L72.778 415.756C72.37 415.756 72.039 415.425 72.039 415.017C72.039 414.609 72.37 414.278 72.778 414.278L77.703 414.278C78.111 414.278 78.442 414.609 78.442 415.017C78.442 415.425 78.111 415.756 77.703 415.756ZM67.853 415.756L62.928 415.756C62.52 415.756 62.189 415.425 62.189 415.017C62.189 414.609 62.52 414.278 62.928 414.278L67.853 414.278C68.261 414.278 68.592 414.609 68.592 415.017C68.592 415.425 68.261 415.756 67.853 415.756ZM58.003 415.749C57.996 415.749 57.99 415.749 57.983 415.748C56.266 415.7 54.57 415.42 52.942 414.914C52.552 414.793 52.335 414.379 52.456 413.989C52.577 413.6 52.987 413.382 53.38 413.503C54.88 413.969 56.442 414.227 58.024 414.272C58.431 414.283 58.753 414.623 58.742 415.031C58.731 415.431 58.403 415.749 58.003 415.749ZM48.717 412.862C48.579 412.862 48.44 412.823 48.316 412.743C46.884 411.814 45.581 410.692 44.446 409.407C44.177 409.101 44.206 408.634 44.511 408.364C44.815 408.094 45.282 408.122 45.554 408.428C46.6 409.612 47.799 410.646 49.12 411.502C49.462 411.724 49.56 412.182 49.337 412.524C49.196 412.743 48.96 412.862 48.717 412.862ZM42.28 405.57C42.005 405.57 41.741 405.417 41.613 405.153C40.869 403.609 40.339 401.973 40.039 400.291C39.968 399.889 40.235 399.506 40.637 399.434C41.036 399.367 41.422 399.63 41.493 400.032C41.769 401.582 42.257 403.088 42.944 404.51C43.121 404.877 42.967 405.319 42.6 405.496C42.497 405.547 42.388 405.57 42.28 405.57ZM40.488 395.993C40.08 395.993 39.749 395.662 39.749 395.254L39.749 390.329C39.749 389.921 40.08 389.59 40.488 389.59C40.896 389.59 41.227 389.921 41.227 390.329L41.227 395.254C41.227 395.662 40.896 395.993 40.488 395.993ZM40.488 386.143C40.08 386.143 39.749 385.812 39.749 385.404L39.749 380.479C39.749 380.071 40.08 379.74 40.488 379.74C40.896 379.74 41.227 380.071 41.227 380.479L41.227 385.404C41.227 385.812 40.896 386.143 40.488 386.143ZM40.488 376.293C40.08 376.293 39.749 375.962 39.749 375.554L39.749 370.629C39.749 370.221 40.08 369.89 40.488 369.89C40.896 369.89 41.227 370.221 41.227 370.629L41.227 375.554C41.227 375.962 40.896 376.293 40.488 376.293ZM40.488 366.443C40.08 366.443 39.749 366.112 39.749 365.704L39.749 360.779C39.749 360.371 40.08 360.04 40.488 360.04C40.896 360.04 41.227 360.371 41.227 360.779L41.227 365.704C41.227 366.112 40.896 366.443 40.488 366.443ZM40.488 356.593C40.08 356.593 39.749 356.262 39.749 355.854L39.749 350.929C39.749 350.521 40.08 350.19 40.488 350.19C40.896 350.19 41.227 350.521 41.227 350.929L41.227 355.854C41.227 356.262 40.896 356.593 40.488 356.593ZM40.488 346.743C40.08 346.743 39.749 346.412 39.749 346.004L39.749 341.079C39.749 340.671 40.08 340.34 40.488 340.34C40.896 340.34 41.227 340.671 41.227 341.079L41.227 346.004C41.227 346.413 40.896 346.743 40.488 346.743ZM40.488 336.893C40.08 336.893 39.749 336.562 39.749 336.154L39.749 331.229C39.749 330.821 40.08 330.49 40.488 330.49C40.896 330.49 41.227 330.821 41.227 331.229L41.227 336.154C41.227 336.563 40.896 336.893 40.488 336.893ZM40.488 327.044C40.08 327.044 39.749 326.713 39.749 326.305L39.749 321.38C39.749 320.972 40.08 320.641 40.488 320.641C40.896 320.641 41.227 320.972 41.227 321.38L41.227 326.305C41.227 326.713 40.896 327.044 40.488 327.044ZM40.488 317.194C40.08 317.194 39.749 316.863 39.749 316.455L39.749 311.53C39.749 311.122 40.08 310.791 40.488 310.791C40.896 310.791 41.227 311.122 41.227 311.53L41.227 316.455C41.227 316.863 40.896 317.194 40.488 317.194ZM40.488 307.344C40.08 307.344 39.749 307.013 39.749 306.605L39.749 301.68C39.749 301.272 40.08 300.941 40.488 300.941C40.896 300.941 41.227 301.272 41.227 301.68L41.227 306.605C41.227 307.013 40.896 307.344 40.488 307.344ZM40.488 297.494C40.08 297.494 39.749 297.163 39.749 296.755L39.749 291.83C39.749 291.422 40.08 291.091 40.488 291.091C40.896 291.091 41.227 291.422 41.227 291.83L41.227 296.755C41.227 297.163 40.896 297.494 40.488 297.494ZM40.488 287.644C40.08 287.644 39.749 287.313 39.749 286.905L39.749 281.98C39.749 281.572 40.08 281.241 40.488 281.241C40.896 281.241 41.227 281.572 41.227 281.98L41.227 286.905C41.227 287.313 40.896 287.644 40.488 287.644ZM40.488 277.794C40.08 277.794 39.749 277.463 39.749 277.055L39.749 276.557C39.749 275.014 39.937 273.479 40.307 271.997C40.406 271.601 40.815 271.361 41.203 271.459C41.599 271.558 41.84 271.959 41.741 272.354C41.401 273.719 41.227 275.133 41.227 276.556L41.227 277.054C41.227 277.463 40.896 277.794 40.488 277.794ZM42.854 268.361C42.73 268.361 42.604 268.33 42.488 268.264C42.134 268.062 42.011 267.61 42.213 267.256C43.06 265.773 44.108 264.41 45.327 263.205C45.618 262.919 46.085 262.921 46.372 263.211C46.659 263.501 46.657 263.969 46.366 264.256C45.243 265.366 44.277 266.622 43.497 267.988C43.36 268.227 43.111 268.361 42.854 268.361ZM49.773 261.524C49.513 261.524 49.261 261.387 49.127 261.144C48.929 260.787 49.057 260.338 49.414 260.139C50.912 259.307 52.515 258.686 54.18 258.291C54.581 258.199 54.974 258.442 55.069 258.84C55.163 259.237 54.918 259.635 54.521 259.729C52.988 260.092 51.511 260.664 50.132 261.431C50.018 261.494 49.895 261.524 49.773 261.524ZM172.51 259.265L167.585 259.265C167.177 259.265 166.846 258.934 166.846 258.526C166.846 258.118 167.177 257.787 167.585 257.787L172.51 257.787C172.918 257.787 173.249 258.118 173.249 258.526C173.249 258.934 172.918 259.265 172.51 259.265ZM162.661 259.265L157.736 259.265C157.328 259.265 156.997 258.934 156.997 258.526C156.997 258.118 157.328 257.787 157.736 257.787L162.661 257.787C163.069 257.787 163.4 258.118 163.4 258.526C163.399 258.934 163.068 259.265 162.661 259.265ZM152.811 259.265L147.886 259.265C147.478 259.265 147.147 258.934 147.147 258.526C147.147 258.118 147.478 257.787 147.886 257.787L152.811 257.787C153.219 257.787 153.55 258.118 153.55 258.526C153.549 258.934 153.219 259.265 152.811 259.265ZM142.961 259.265L138.036 259.265C137.628 259.265 137.297 258.934 137.297 258.526C137.297 258.118 137.628 257.787 138.036 257.787L142.961 257.787C143.369 257.787 143.7 258.118 143.7 258.526C143.7 258.934 143.369 259.265 142.961 259.265ZM133.111 259.265L128.186 259.265C127.778 259.265 127.447 258.934 127.447 258.526C127.447 258.118 127.778 257.787 128.186 257.787L133.111 257.787C133.519 257.787 133.85 258.118 133.85 258.526C133.85 258.934 133.519 259.265 133.111 259.265ZM123.261 259.265L118.336 259.265C117.928 259.265 117.597 258.934 117.597 258.526C117.597 258.118 117.928 257.787 118.336 257.787L123.261 257.787C123.669 257.787 124 258.118 124 258.526C124 258.934 123.669 259.265 123.261 259.265ZM113.411 259.265L108.486 259.265C108.078 259.265 107.747 258.934 107.747 258.526C107.747 258.118 108.078 257.787 108.486 257.787L113.411 257.787C113.819 257.787 114.15 258.118 114.15 258.526C114.15 258.934 113.819 259.265 113.411 259.265ZM103.561 259.265L98.636 259.265C98.228 259.265 97.897 258.934 97.897 258.526C97.897 258.118 98.228 257.787 98.636 257.787L103.561 257.787C103.969 257.787 104.3 258.118 104.3 258.526C104.3 258.934 103.969 259.265 103.561 259.265ZM93.711 259.265L88.786 259.265C88.378 259.265 88.047 258.934 88.047 258.526C88.047 258.118 88.378 257.787 88.786 257.787L93.711 257.787C94.119 257.787 94.45 258.118 94.45 258.526C94.45 258.934 94.119 259.265 93.711 259.265ZM83.861 259.265L78.936 259.265C78.528 259.265 78.197 258.934 78.197 258.526C78.197 258.118 78.528 257.787 78.936 257.787L83.861 257.787C84.269 257.787 84.6 258.118 84.6 258.526C84.6 258.934 84.269 259.265 83.861 259.265ZM74.011 259.265L69.086 259.265C68.678 259.265 68.347 258.934 68.347 258.526C68.347 258.118 68.678 257.787 69.086 257.787L74.011 257.787C74.419 257.787 74.75 258.118 74.75 258.526C74.75 258.934 74.419 259.265 74.011 259.265ZM64.161 259.265L59.236 259.265C58.828 259.265 58.497 258.934 58.497 258.526C58.497 258.118 58.828 257.787 59.236 257.787L64.161 257.787C64.569 257.787 64.9 258.118 64.9 258.526C64.9 258.934 64.569 259.265 64.161 259.265Z" fill="#b19cfe" fill-rule="nonzero" opacity="1" stroke="none" vectornator:layerName="path"/>
<g opacity="1" vectornator:layerName="g">
<path d="M37.269 336.99C37.269 335.212 38.7102 333.771 40.488 333.771C42.2658 333.771 43.707 335.212 43.707 336.99C43.707 338.768 42.2658 340.209 40.488 340.209C38.7102 340.209 37.269 338.768 37.269 336.99Z" fill="#b19cfe" fill-rule="nonzero" opacity="1" stroke="none" vectornator:layerName="circle"/>
<path d="M40.488 343.024C37.162 343.024 34.455 340.318 34.455 336.991C34.455 333.664 37.162 330.958 40.488 330.958C43.814 330.958 46.521 333.664 46.521 336.991C46.521 340.317 43.814 343.024 40.488 343.024ZM40.488 331.696C37.569 331.696 35.194 334.071 35.194 336.99C35.194 339.909 37.569 342.284 40.488 342.284C43.407 342.284 45.782 339.909 45.782 336.99C45.782 334.071 43.408 331.696 40.488 331.696Z" fill="#b19cfe" fill-rule="nonzero" opacity="1" stroke="none" vectornator:layerName="path"/>
</g>
</g>
<g opacity="1" vectornator:layerName="g">
<path d="M206.296 236.753C205.8 236.753 205.397 236.35 205.397 235.854L205.397 229.862C205.397 229.366 205.8 228.963 206.296 228.963C206.792 228.963 207.195 229.366 207.195 229.862L207.195 235.854C207.195 236.35 206.792 236.753 206.296 236.753ZM206.296 224.769C205.8 224.769 205.397 224.366 205.397 223.87L205.397 217.878C205.397 217.382 205.8 216.979 206.296 216.979C206.792 216.979 207.195 217.382 207.195 217.878L207.195 223.87C207.195 224.366 206.792 224.769 206.296 224.769ZM206.296 212.784C205.8 212.784 205.397 212.381 205.397 211.885L205.397 205.893C205.397 205.397 205.8 204.994 206.296 204.994C206.792 204.994 207.195 205.397 207.195 205.893L207.195 211.885C207.195 212.382 206.792 212.784 206.296 212.784ZM206.296 200.8C205.8 200.8 205.397 200.397 205.397 199.901L205.397 193.909C205.397 193.413 205.8 193.01 206.296 193.01C206.792 193.01 207.195 193.413 207.195 193.909L207.195 199.901C207.195 200.398 206.792 200.8 206.296 200.8ZM206.296 188.816C205.8 188.816 205.397 188.413 205.397 187.917L205.397 181.925C205.397 181.429 205.8 181.026 206.296 181.026C206.792 181.026 207.195 181.429 207.195 181.925L207.195 187.917C207.195 188.413 206.792 188.816 206.296 188.816ZM206.296 176.832C205.8 176.832 205.397 176.429 205.397 175.933L205.397 169.941C205.397 169.445 205.8 169.042 206.296 169.042C206.792 169.042 207.195 169.445 207.195 169.941L207.195 175.933C207.195 176.429 206.792 176.832 206.296 176.832ZM301.458 166.037C300.962 166.037 300.559 165.634 300.559 165.138L300.559 161.812C300.559 161.316 300.962 160.913 301.458 160.913C301.954 160.913 302.357 161.316 302.357 161.812L302.357 165.138C302.357 165.634 301.954 166.037 301.458 166.037ZM206.296 164.848C205.8 164.848 205.397 164.446 205.397 163.949L205.397 157.957C205.397 157.461 205.8 157.058 206.296 157.058C206.792 157.058 207.195 157.461 207.195 157.957L207.195 163.949C207.195 164.445 206.792 164.848 206.296 164.848ZM301.458 156.719C300.962 156.719 300.559 156.317 300.559 155.82L300.559 149.828C300.559 149.332 300.962 148.929 301.458 148.929C301.954 148.929 302.357 149.332 302.357 149.828L302.357 155.82C302.357 156.316 301.954 156.719 301.458 156.719ZM206.296 152.864C205.8 152.864 205.397 152.461 205.397 151.965L205.397 145.973C205.397 145.477 205.8 145.074 206.296 145.074C206.792 145.074 207.195 145.477 207.195 145.973L207.195 151.965C207.195 152.461 206.792 152.864 206.296 152.864ZM301.458 144.734C300.962 144.734 300.559 144.331 300.559 143.835L300.559 137.843C300.559 137.347 300.962 136.944 301.458 136.944C301.954 136.944 302.357 137.347 302.357 137.843L302.357 143.835C302.357 144.332 301.954 144.734 301.458 144.734ZM206.296 140.879C205.8 140.879 205.397 140.476 205.397 139.98L205.397 133.988C205.397 133.492 205.8 133.089 206.296 133.089C206.792 133.089 207.195 133.492 207.195 133.988L207.195 139.98C207.195 140.477 206.792 140.879 206.296 140.879ZM301.458 132.75C300.962 132.75 300.559 132.347 300.559 131.851L300.559 125.859C300.559 125.363 300.962 124.96 301.458 124.96C301.954 124.96 302.357 125.363 302.357 125.859L302.357 131.851C302.357 132.348 301.954 132.75 301.458 132.75ZM206.296 128.895C205.8 128.895 205.397 128.492 205.397 127.996L205.397 122.004C205.397 121.508 205.8 121.105 206.296 121.105C206.792 121.105 207.195 121.508 207.195 122.004L207.195 127.996C207.195 128.493 206.792 128.895 206.296 128.895ZM301.458 120.766C300.962 120.766 300.559 120.363 300.559 119.867L300.559 113.875C300.559 113.379 300.962 112.976 301.458 112.976C301.954 112.976 302.357 113.379 302.357 113.875L302.357 119.867C302.357 120.364 301.954 120.766 301.458 120.766ZM206.296 116.911C205.8 116.911 205.397 116.508 205.397 116.012L205.397 110.02C205.397 109.524 205.8 109.121 206.296 109.121C206.792 109.121 207.195 109.524 207.195 110.02L207.195 116.012C207.195 116.508 206.792 116.911 206.296 116.911ZM301.458 108.782C300.962 108.782 300.559 108.379 300.559 107.883L300.559 101.891C300.559 101.395 300.962 100.992 301.458 100.992C301.954 100.992 302.357 101.395 302.357 101.891L302.357 107.883C302.357 108.379 301.954 108.782 301.458 108.782ZM206.296 104.927C205.8 104.927 205.397 104.524 205.397 104.028L205.397 98.036C205.397 97.54 205.8 97.137 206.296 97.137C206.792 97.137 207.195 97.54 207.195 98.036L207.195 104.028C207.195 104.524 206.792 104.927 206.296 104.927ZM301.419 96.799C300.946 96.799 300.55 96.429 300.523 95.951C300.414 94.03 300.044 92.14 299.424 90.331C299.264 89.862 299.514 89.35 299.983 89.189C300.448 89.029 300.965 89.278 301.124 89.748C301.798 91.712 302.2 93.765 302.318 95.849C302.346 96.345 301.967 96.769 301.472 96.798C301.454 96.798 301.437 96.799 301.419 96.799ZM206.887 92.99C206.818 92.99 206.749 92.982 206.679 92.966C206.196 92.851 205.897 92.367 206.012 91.884C206.492 89.856 207.249 87.905 208.261 86.085C208.501 85.651 209.05 85.495 209.483 85.737C209.917 85.978 210.073 86.526 209.832 86.96C208.899 88.635 208.203 90.432 207.761 92.299C207.663 92.712 207.294 92.99 206.887 92.99ZM297.586 85.61C297.3 85.61 297.02 85.475 296.845 85.223C295.753 83.643 294.453 82.22 292.979 80.993C292.599 80.675 292.546 80.108 292.864 79.727C293.182 79.344 293.748 79.295 294.13 79.612C295.728 80.943 297.138 82.487 298.323 84.2C298.605 84.609 298.503 85.168 298.095 85.451C297.941 85.559 297.762 85.61 297.586 85.61ZM212.629 82.643C212.401 82.643 212.173 82.556 211.997 82.383C211.644 82.034 211.641 81.465 211.99 81.112C213.456 79.629 215.114 78.354 216.917 77.323C217.346 77.077 217.897 77.227 218.144 77.658C218.39 78.089 218.24 78.638 217.809 78.885C216.147 79.834 214.62 81.009 213.268 82.377C213.092 82.554 212.86 82.643 212.629 82.643ZM288.492 78.035C288.369 78.035 288.244 78.01 288.125 77.957C286.374 77.172 284.524 76.632 282.627 76.351C282.135 76.279 281.796 75.821 281.869 75.33C281.942 74.839 282.394 74.489 282.89 74.573C284.951 74.877 286.959 75.464 288.861 76.316C289.314 76.519 289.516 77.051 289.314 77.504C289.163 77.837 288.835 78.035 288.492 78.035ZM222.902 76.776C222.499 76.776 222.133 76.503 222.031 76.095C221.911 75.613 222.203 75.125 222.685 75.005C224.488 74.555 226.355 74.326 228.233 74.326L228.839 74.326C229.335 74.326 229.738 74.729 229.738 75.225C229.738 75.721 229.335 76.124 228.839 76.124L228.233 76.124C226.502 76.124 224.782 76.334 223.12 76.749C223.048 76.767 222.974 76.776 222.902 76.776ZM276.777 76.124L270.785 76.124C270.289 76.124 269.886 75.721 269.886 75.225C269.886 74.729 270.289 74.326 270.785 74.326L276.777 74.326C277.273 74.326 277.676 74.729 277.676 75.225C277.676 75.721 277.273 76.124 276.777 76.124ZM264.793 76.124L258.801 76.124C258.305 76.124 257.902 75.721 257.902 75.225C257.902 74.729 258.305 74.326 258.801 74.326L264.793 74.326C265.289 74.326 265.692 74.729 265.692 75.225C265.691 75.721 265.289 76.124 264.793 76.124ZM252.808 76.124L246.816 76.124C246.32 76.124 245.917 75.721 245.917 75.225C245.917 74.729 246.32 74.326 246.816 74.326L252.808 74.326C253.304 74.326 253.707 74.729 253.707 75.225C253.707 75.721 253.305 76.124 252.808 76.124ZM240.824 76.124L234.832 76.124C234.336 76.124 233.933 75.721 233.933 75.225C233.933 74.729 234.336 74.326 234.832 74.326L240.824 74.326C241.32 74.326 241.723 74.729 241.723 75.225C241.723 75.721 241.321 76.124 240.824 76.124Z" fill="#b19cfe" fill-rule="nonzero" opacity="1" stroke="none" vectornator:layerName="path"/>
<g opacity="1" vectornator:layerName="g">
<path d="M250.5 75.225C250.5 73.3599 252.012 71.848 253.877 71.848C255.742 71.848 257.254 73.3599 257.254 75.225C257.254 77.0901 255.742 78.602 253.877 78.602C252.012 78.602 250.5 77.0901 250.5 75.225Z" fill="#b19cfe" fill-rule="nonzero" opacity="1" stroke="none" vectornator:layerName="circle"/>
<path d="M253.877 81.554C250.387 81.554 247.548 78.715 247.548 75.225C247.548 71.735 250.388 68.896 253.877 68.896C257.367 68.896 260.206 71.735 260.206 75.225C260.206 78.715 257.367 81.554 253.877 81.554ZM253.877 69.671C250.814 69.671 248.323 72.163 248.323 75.225C248.323 78.288 250.815 80.779 253.877 80.779C256.94 80.779 259.431 78.287 259.431 75.225C259.431 72.163 256.94 69.671 253.877 69.671Z" fill="#b19cfe" fill-rule="nonzero" opacity="1" stroke="none" vectornator:layerName="path"/>
</g>
</g>
<g opacity="1" vectornator:layerName="g">
<path d="M199.958 123.914L257.912 123.914L257.912 123.914L257.912 133.822L257.912 133.822L199.958 133.822L199.958 133.822L199.958 123.914L199.958 123.914Z" fill="#c1c1c1" fill-rule="nonzero" opacity="1" stroke="none" vectornator:layerName="rect"/>
<path d="M304.733 120.185L263.306 120.185C260.291 120.185 257.431 121.197 255.493 122.95L244.239 131.371L199.904 131.371C198.051 131.371 196.548 132.874 196.548 134.727L196.548 196.09C196.548 197.943 198.051 199.446 199.904 199.446L307.929 199.446C309.782 199.446 311.285 197.944 311.285 196.09L311.285 136.804L311.285 134.727L311.285 127.643C311.285 123.701 308.352 120.185 304.733 120.185Z" fill="#ffc655" fill-rule="nonzero" opacity="1" stroke="none" vectornator:layerName="path"/>
</g>
<path d="M133.516 305.616L127.372 311.572C127.168 311.77 126.989 311.985 126.827 312.208C122.74 309.528 118.277 307.647 113.658 306.567C113.71 306.289 113.747 306.007 113.75 305.719L113.842 297.162C113.87 294.5 111.728 292.31 109.065 292.282L100.508 292.19C97.847 292.162 95.656 294.304 95.628 296.967L95.536 305.524C95.533 305.812 95.564 306.094 95.609 306.372C91.092 307.326 86.706 309.043 82.652 311.525C82.497 311.297 82.325 311.077 82.127 310.873L76.171 304.729C74.317 302.817 71.254 302.769 69.342 304.623L63.198 310.579C61.286 312.433 61.239 315.496 63.092 317.408L69.048 323.552C69.246 323.756 69.461 323.935 69.683 324.097C67.003 328.184 65.122 332.647 64.042 337.266C63.765 337.214 63.483 337.177 63.194 337.174L54.637 337.082C53.355 337.068 52.144 337.551 51.224 338.443C51.218 338.448 51.213 338.454 51.208 338.46C50.286 339.362 49.771 340.57 49.757 341.859L49.665 350.416L49.665 350.416C49.637 353.078 51.779 355.268 54.442 355.296L62.999 355.388C63.289 355.391 63.569 355.358 63.846 355.312C64.8 359.83 66.517 364.217 69 368.271C68.772 368.426 68.552 368.598 68.348 368.796L62.204 374.752C60.292 376.606 60.245 379.669 62.098 381.58L68.054 387.724C69.908 389.636 72.971 389.683 74.883 387.83L81.027 381.874C81.231 381.676 81.41 381.461 81.572 381.239C85.66 383.919 90.124 385.8 94.744 386.88C94.692 387.156 94.652 387.437 94.649 387.727L94.557 396.284C94.543 397.574 95.032 398.792 95.935 399.714C96.837 400.636 98.045 401.151 99.334 401.165L107.891 401.257L107.891 401.257C109.214 401.271 110.42 400.749 111.302 399.894C112.195 399.028 112.757 397.82 112.771 396.481L112.863 387.924C112.866 387.634 112.833 387.354 112.787 387.077C117.305 386.123 121.692 384.406 125.747 381.923C125.902 382.151 126.074 382.371 126.272 382.575L132.228 388.719C134.082 390.631 137.145 390.678 139.057 388.825L145.201 382.869C147.113 381.015 147.16 377.952 145.307 376.04L139.351 369.896C139.153 369.692 138.938 369.513 138.715 369.351C141.395 365.263 143.276 360.8 144.356 356.179C144.632 356.231 144.913 356.271 145.203 356.274L153.76 356.366C155.083 356.38 156.289 355.858 157.172 355.003C158.065 354.137 158.627 352.929 158.641 351.59L158.734 343.033C158.762 340.37 156.619 338.181 153.957 338.152L145.4 338.06C145.112 338.057 144.83 338.087 144.552 338.133C143.598 333.616 141.881 329.23 139.399 325.176C139.627 325.021 139.847 324.849 140.051 324.651L146.195 318.695C148.107 316.841 148.154 313.778 146.301 311.867L140.345 305.723C138.49 303.81 135.427 303.762 133.516 305.616ZM119.986 363.006C111.007 371.711 96.621 371.488 87.916 362.51C79.211 353.531 79.434 339.145 88.413 330.44C97.392 321.735 111.778 321.958 120.483 330.937C129.187 339.915 128.964 354.301 119.986 363.006Z" fill="none" opacity="1" stroke="#0f1b63" stroke-linecap="butt" stroke-linejoin="miter" stroke-width="1" vectornator:layerName="path"/>
<g opacity="1" vectornator:layerName="g">
<path d="M204.512 375.757L296.483 375.757L296.483 375.757L296.483 419.845L296.483 419.845L204.512 419.845L204.512 419.845L204.512 375.757L204.512 375.757Z" fill="#c60c88" fill-rule="nonzero" opacity="1" stroke="none" vectornator:layerName="rect"/>
<path d="M403.278 167.604L403.278 368.446C403.278 374.897 398.049 380.126 391.589 380.126L109.405 380.126C102.954 380.126 97.716 374.897 97.716 368.446L97.716 167.604C97.716 161.153 102.954 155.915 109.405 155.915L391.589 155.915C398.049 155.915 403.278 161.153 403.278 167.604Z" fill="#d42190" fill-rule="nonzero" opacity="1" stroke="none" vectornator:layerName="path"/>
<path d="M256 366C256 369.314 253.314 372 250 372C246.686 372 244 369.314 244 366C244 362.686 246.686 360 250 360C253.314 360 256 362.686 256 366Z" fill="#ffffff" fill-rule="nonzero" opacity="0.5" stroke="none" vectornator:layerName="path"/>
<path d="M399.608 352.765L399.608 169.854C399.608 164.31 395.268 159.816 389.915 159.816L111.08 159.816C105.727 159.816 101.387 164.31 101.387 169.854L101.387 352.765L399.608 352.765Z" fill="#ded7ff" fill-rule="nonzero" opacity="1" stroke="none" vectornator:layerName="path"/>
<path d="M314.579 424.595L186.416 424.595L186.416 424.288C186.416 419.21 190.533 415.094 195.61 415.094L305.384 415.094C310.462 415.094 314.578 419.21 314.578 424.288L314.578 424.595L314.579 424.595Z" fill="#d42190" fill-rule="nonzero" opacity="1" stroke="none" vectornator:layerName="path"/>
</g>
<g opacity="1" vectornator:layerName="g">
<path d="M125.432 157.939C125.432 149.086 118.758 141.801 110.169 140.817C110.235 140.238 110.277 139.652 110.277 139.056C110.277 130.568 103.396 123.688 94.909 123.688C92.635 123.688 90.484 124.195 88.542 125.081C84.45 118.702 77.302 114.472 69.16 114.472C56.448 114.472 46.143 124.777 46.143 137.489C46.143 138.608 46.227 139.708 46.382 140.784C37.683 141.664 30.894 149.009 30.894 157.94C30.894 167.464 38.615 175.185 48.139 175.185L109.042 175.185L109.042 175.142C118.166 174.692 125.432 167.174 125.432 157.939Z" fill="#b19cfe" fill-rule="nonzero" opacity="1" stroke="none" vectornator:layerName="path"/>
<path d="M89.208 188.343L89.208 161.549L67.118 161.549L67.118 188.343L60.213 188.343L78.163 205.16L96.114 188.343L89.208 188.343Z" fill="#ffc655" fill-rule="nonzero" opacity="1" stroke="none" vectornator:layerName="polygon"/>
</g>
<path d="M333.235 170.609L278.998 170.609C273.983 170.609 269.917 166.543 269.917 161.528L269.917 143.49C269.917 138.475 273.983 134.409 278.998 134.409L333.235 134.409C338.25 134.409 342.316 138.475 342.316 143.49L342.316 161.527C342.316 166.543 338.25 170.609 333.235 170.609Z" fill="#542fd0" fill-rule="nonzero" opacity="1" stroke="none" vectornator:layerName="path"/>
<path d="M130.776 431.104L76.54 431.104C71.525 431.104 67.459 427.038 67.459 422.023L67.459 403.986C67.459 398.971 71.525 394.905 76.54 394.905L130.777 394.905C135.792 394.905 139.858 398.971 139.858 403.986L139.858 422.023C139.858 427.038 135.792 431.104 130.776 431.104Z" fill="#542fd0" fill-rule="nonzero" opacity="1" stroke="none" vectornator:layerName="path"/>
<path d="M156.857 277.965L102.62 277.965C97.605 277.965 93.539 273.899 93.539 268.884L93.539 250.847C93.539 245.832 97.605 241.766 102.62 241.766L156.857 241.766C161.872 241.766 165.938 245.832 165.938 250.847L165.938 268.884C165.938 273.899 161.872 277.965 156.857 277.965Z" fill="#542fd0" fill-rule="nonzero" opacity="1" stroke="none" vectornator:layerName="path"/>
<g opacity="1" vectornator:layerName="g">
<path d="M347.967 393.867L345.384 393.867C344.956 393.867 344.609 393.52 344.609 393.092C344.609 392.664 344.956 392.317 345.384 392.317L347.967 392.317C348.395 392.317 348.742 392.664 348.742 393.092C348.742 393.52 348.395 393.867 347.967 393.867Z" fill="#b19cfe" fill-rule="nonzero" opacity="1" stroke="none" vectornator:layerName="path"/>
<path d="M409.98 393.867L404.812 393.867C404.384 393.867 404.037 393.52 404.037 393.092C404.037 392.664 404.384 392.317 404.812 392.317L409.98 392.317C410.408 392.317 410.755 392.664 410.755 393.092C410.755 393.52 410.408 393.867 409.98 393.867ZM399.644 393.867L394.477 393.867C394.049 393.867 393.702 393.52 393.702 393.092C393.702 392.664 394.049 392.317 394.477 392.317L399.644 392.317C400.072 392.317 400.419 392.664 400.419 393.092C400.419 393.52 400.072 393.867 399.644 393.867ZM389.309 393.867L384.141 393.867C383.713 393.867 383.366 393.52 383.366 393.092C383.366 392.664 383.713 392.317 384.141 392.317L389.309 392.317C389.737 392.317 390.084 392.664 390.084 393.092C390.084 393.52 389.737 393.867 389.309 393.867ZM378.973 393.867L373.805 393.867C373.377 393.867 373.03 393.52 373.03 393.092C373.03 392.664 373.377 392.317 373.805 392.317L378.973 392.317C379.401 392.317 379.748 392.664 379.748 393.092C379.749 393.52 379.401 393.867 378.973 393.867ZM368.638 393.867L363.471 393.867C363.043 393.867 362.696 393.52 362.696 393.092C362.696 392.664 363.043 392.317 363.471 392.317L368.638 392.317C369.066 392.317 369.413 392.664 369.413 393.092C369.413 393.52 369.066 393.867 368.638 393.867ZM358.303 393.867L353.135 393.867C352.707 393.867 352.36 393.52 352.36 393.092C352.36 392.664 352.707 392.317 353.135 392.317L358.303 392.317C358.731 392.317 359.078 392.664 359.078 393.092C359.078 393.52 358.731 393.867 358.303 393.867ZM415.097 393.266C414.748 393.266 414.431 393.028 414.345 392.673C414.244 392.257 414.499 391.838 414.915 391.737C416.529 391.346 418.094 390.759 419.565 389.991C419.945 389.793 420.413 389.94 420.61 390.32C420.808 390.699 420.661 391.167 420.281 391.365C418.698 392.191 417.015 392.823 415.28 393.243C415.219 393.259 415.158 393.266 415.097 393.266ZM424.175 388.54C423.96 388.54 423.746 388.451 423.593 388.277C423.31 387.956 423.342 387.466 423.664 387.183C424.912 386.086 426.027 384.84 426.978 383.48C427.222 383.129 427.705 383.043 428.057 383.289C428.408 383.534 428.493 384.018 428.248 384.368C427.227 385.829 426.029 387.168 424.688 388.347C424.54 388.476 424.357 388.54 424.175 388.54ZM430.034 380.152C429.941 380.152 429.846 380.135 429.755 380.1C429.356 379.946 429.157 379.497 429.312 379.098C429.91 377.55 430.318 375.93 430.525 374.283C430.578 373.858 430.952 373.556 431.391 373.611C431.816 373.664 432.117 374.052 432.063 374.477C431.84 376.249 431.401 377.991 430.757 379.657C430.639 379.964 430.345 380.152 430.034 380.152ZM431.464 369.996C431.036 369.996 430.689 369.649 430.689 369.221L430.689 364.053C430.689 363.625 431.036 363.278 431.464 363.278C431.892 363.278 432.239 363.625 432.239 364.053L432.239 369.221C432.24 369.649 431.892 369.996 431.464 369.996ZM431.464 359.66C431.036 359.66 430.689 359.313 430.689 358.885L430.689 353.718C430.689 353.29 431.036 352.943 431.464 352.943C431.892 352.943 432.239 353.29 432.239 353.718L432.239 358.885C432.24 359.313 431.892 359.66 431.464 359.66ZM431.464 349.325C431.036 349.325 430.689 348.978 430.689 348.55L430.689 343.383C430.689 342.955 431.036 342.608 431.464 342.608C431.892 342.608 432.239 342.955 432.239 343.383L432.239 348.55C432.24 348.978 431.892 349.325 431.464 349.325ZM431.464 338.99C431.036 338.99 430.689 338.643 430.689 338.215L430.689 333.047C430.689 332.619 431.036 332.272 431.464 332.272C431.892 332.272 432.239 332.619 432.239 333.047L432.239 338.215C432.24 338.642 431.892 338.99 431.464 338.99ZM431.464 328.655C431.036 328.655 430.689 328.308 430.689 327.88L430.689 322.712C430.689 322.284 431.036 321.937 431.464 321.937C431.892 321.937 432.239 322.284 432.239 322.712L432.239 327.88C432.24 328.307 431.892 328.655 431.464 328.655ZM431.464 318.319C431.036 318.319 430.689 317.972 430.689 317.544L430.689 312.377C430.689 311.949 431.036 311.602 431.464 311.602C431.892 311.602 432.239 311.949 432.239 312.377L432.239 317.544C432.24 317.972 431.892 318.319 431.464 318.319ZM431.464 307.983C431.036 307.983 430.689 307.636 430.689 307.208L430.689 302.04C430.689 301.612 431.036 301.265 431.464 301.265C431.892 301.265 432.239 301.612 432.239 302.04L432.239 307.208C432.24 307.636 431.892 307.983 431.464 307.983Z" fill="#b19cfe" fill-rule="nonzero" opacity="1" stroke="none" vectornator:layerName="path"/>
<path d="M431.464 297.625C431.036 297.625 430.689 297.278 430.689 296.85L430.689 295.042L430.039 295.042C429.611 295.042 429.264 294.695 429.264 294.267C429.264 293.839 429.611 293.492 430.039 293.492L431.464 293.492C431.892 293.492 432.239 293.839 432.239 294.267L432.239 296.85C432.24 297.278 431.892 297.625 431.464 297.625Z" fill="#b19cfe" fill-rule="nonzero" opacity="1" stroke="none" vectornator:layerName="path"/>
</g>
<g opacity="1" vectornator:layerName="g">
<path d="M407.411 215.995L339.606 215.995C335.53 215.995 332.226 219.299 332.226 223.375L332.226 364.284C332.226 368.36 335.53 371.664 339.606 371.664L407.411 371.664C411.487 371.664 414.791 368.36 414.791 364.284L414.791 223.375C414.791 219.299 411.487 215.995 407.411 215.995Z" fill="#b19cfe" fill-rule="nonzero" opacity="1" stroke="none" vectornator:layerName="path"/>
<g opacity="1" vectornator:layerName="g">
<path d="M388.67 224.115L351.373 224.115C350.726 224.115 350.201 223.59 350.201 222.943L350.201 222.792C350.201 222.145 350.726 221.62 351.373 221.62L388.67 221.62C389.317 221.62 389.842 222.145 389.842 222.792L389.842 222.943C389.842 223.59 389.317 224.115 388.67 224.115Z" fill="#0f1b63" fill-rule="nonzero" opacity="1" stroke="none" vectornator:layerName="path"/>
<path d="M396.816 222.867C396.816 223.556 396.257 224.115 395.568 224.115C394.879 224.115 394.32 223.556 394.32 222.867C394.32 222.178 394.879 221.619 395.568 221.619C396.257 221.619 396.816 222.178 396.816 222.867Z" fill="#0f1b63" fill-rule="nonzero" opacity="1" stroke="none" vectornator:layerName="path"/>
</g>
<path d="M336.771 230.131L410.246 230.131L410.246 230.131L410.246 275.28L410.246 275.28L336.771 275.28L336.771 275.28L336.771 230.131L336.771 230.131Z" fill="#ffffff" fill-rule="nonzero" opacity="1" stroke="none" vectornator:layerName="rect"/>
<path d="M387.448 248.997L382.061 255.441L368.122 238.766L344.816 266.645L372.695 266.645L391.426 266.645L402.201 266.645L387.448 248.997Z" fill="#ffc655" fill-rule="nonzero" opacity="1" stroke="none" vectornator:layerName="polygon"/>
<g opacity="1" vectornator:layerName="g">
<path d="M336.771 335.083L371.46 335.083L371.46 335.083L371.46 355.429L371.46 355.429L336.771 355.429L336.771 355.429L336.771 335.083L336.771 335.083Z" fill="#ffffff" fill-rule="nonzero" opacity="1" stroke="none" vectornator:layerName="rect"/>
<path d="M360.697 342.99L358.153 346.032L351.572 338.159L340.569 351.322L353.731 351.322L362.575 351.322L367.662 351.322L360.697 342.99Z" fill="#ffc655" fill-rule="nonzero" opacity="1" stroke="none" vectornator:layerName="polygon"/>
</g>
<g opacity="1" vectornator:layerName="g">
<path d="M336.771 286.893L371.46 286.893L371.46 286.893L371.46 288.842L371.46 288.842L336.771 288.842L336.771 288.842L336.771 286.893L336.771 286.893Z" fill="#b19cfe" fill-rule="nonzero" opacity="1" stroke="none" vectornator:layerName="rect"/>
<path d="M336.771 282.809L371.46 282.809L371.46 282.809L371.46 284.758L371.46 284.758L336.771 284.758L336.771 284.758L336.771 282.809L336.771 282.809Z" fill="#b19cfe" fill-rule="nonzero" opacity="1" stroke="none" vectornator:layerName="rect"/>
<path d="M336.771 290.883L358.705 290.883L358.705 290.883L358.705 292.832L358.705 292.832L336.771 292.832L336.771 292.832L336.771 290.883L336.771 290.883Z" fill="#b19cfe" fill-rule="nonzero" opacity="1" stroke="none" vectornator:layerName="rect"/>
<path d="M360.264 290.883L371.459 290.883L371.459 290.883L371.459 292.832L371.459 292.832L360.264 292.832L360.264 292.832L360.264 290.883L360.264 290.883Z" fill="#b19cfe" fill-rule="nonzero" opacity="1" stroke="none" vectornator:layerName="rect"/>
<path d="M336.771 294.868L367.461 294.868L367.461 294.868L367.461 296.817L367.461 296.817L336.771 296.817L336.771 296.817L336.771 294.868L336.771 294.868Z" fill="#b19cfe" fill-rule="nonzero" opacity="1" stroke="none" vectornator:layerName="rect"/>
<path d="M336.771 298.962L347.43 298.962L347.43 298.962L347.43 300.911L347.43 300.911L336.771 300.911L336.771 300.911L336.771 298.962L336.771 298.962Z" fill="#b19cfe" fill-rule="nonzero" opacity="1" stroke="none" vectornator:layerName="rect"/>
<path d="M349.269 298.962L356.946 298.962L356.946 298.962L356.946 300.911L356.946 300.911L349.269 300.911L349.269 300.911L349.269 298.962L349.269 298.962Z" fill="#b19cfe" fill-rule="nonzero" opacity="1" stroke="none" vectornator:layerName="rect"/>
</g>
<g opacity="1" vectornator:layerName="g">
<path d="M375.557 314.188L410.246 314.188L410.246 314.188L410.246 316.137L410.246 316.137L375.557 316.137L375.557 316.137L375.557 314.188L375.557 314.188Z" fill="#b19cfe" fill-rule="nonzero" opacity="1" stroke="none" vectornator:layerName="rect"/>
<path d="M375.557 310.103L410.246 310.103L410.246 310.103L410.246 312.052L410.246 312.052L375.557 312.052L375.557 312.052L375.557 310.103L375.557 310.103Z" fill="#b19cfe" fill-rule="nonzero" opacity="1" stroke="none" vectornator:layerName="rect"/>
<path d="M375.557 318.177L397.491 318.177L397.491 318.177L397.491 320.126L397.491 320.126L375.557 320.126L375.557 320.126L375.557 318.177L375.557 318.177Z" fill="#b19cfe" fill-rule="nonzero" opacity="1" stroke="none" vectornator:layerName="rect"/>
<path d="M399.05 318.177L410.245 318.177L410.245 318.177L410.245 320.126L410.245 320.126L399.05 320.126L399.05 320.126L399.05 318.177L399.05 318.177Z" fill="#b19cfe" fill-rule="nonzero" opacity="1" stroke="none" vectornator:layerName="rect"/>
<path d="M375.557 322.162L406.247 322.162L406.247 322.162L406.247 324.111L406.247 324.111L375.557 324.111L375.557 324.111L375.557 322.162L375.557 322.162Z" fill="#b19cfe" fill-rule="nonzero" opacity="1" stroke="none" vectornator:layerName="rect"/>
<path d="M375.557 326.256L386.216 326.256L386.216 326.256L386.216 328.205L386.216 328.205L375.557 328.205L375.557 328.205L375.557 326.256L375.557 326.256Z" fill="#b19cfe" fill-rule="nonzero" opacity="1" stroke="none" vectornator:layerName="rect"/>
<path d="M388.055 326.256L395.732 326.256L395.732 326.256L395.732 328.205L395.732 328.205L388.055 328.205L388.055 328.205L388.055 326.256L388.055 326.256Z" fill="#b19cfe" fill-rule="nonzero" opacity="1" stroke="none" vectornator:layerName="rect"/>
</g>
<g opacity="1" vectornator:layerName="g">
<path d="M375.557 286.893L410.246 286.893L410.246 286.893L410.246 288.842L410.246 288.842L375.557 288.842L375.557 288.842L375.557 286.893L375.557 286.893Z" fill="#b19cfe" fill-rule="nonzero" opacity="1" stroke="none" vectornator:layerName="rect"/>
<path d="M375.557 282.809L410.246 282.809L410.246 282.809L410.246 284.758L410.246 284.758L375.557 284.758L375.557 284.758L375.557 282.809L375.557 282.809Z" fill="#b19cfe" fill-rule="nonzero" opacity="1" stroke="none" vectornator:layerName="rect"/>
<path d="M375.557 290.883L397.491 290.883L397.491 290.883L397.491 292.832L397.491 292.832L375.557 292.832L375.557 292.832L375.557 290.883L375.557 290.883Z" fill="#b19cfe" fill-rule="nonzero" opacity="1" stroke="none" vectornator:layerName="rect"/>
<path d="M399.05 290.883L410.245 290.883L410.245 290.883L410.245 292.832L410.245 292.832L399.05 292.832L399.05 292.832L399.05 290.883L399.05 290.883Z" fill="#b19cfe" fill-rule="nonzero" opacity="1" stroke="none" vectornator:layerName="rect"/>
<path d="M375.557 294.868L410.246 294.868L410.246 294.868L410.246 296.817L410.246 296.817L375.557 296.817L375.557 296.817L375.557 294.868L375.557 294.868Z" fill="#b19cfe" fill-rule="nonzero" opacity="1" stroke="none" vectornator:layerName="rect"/>
<path d="M375.557 298.962L386.216 298.962L386.216 298.962L386.216 300.911L386.216 300.911L375.557 300.911L375.557 300.911L375.557 298.962L375.557 298.962Z" fill="#b19cfe" fill-rule="nonzero" opacity="1" stroke="none" vectornator:layerName="rect"/>
<path d="M388.055 298.962L410.246 298.962L410.246 298.962L410.246 300.911L410.246 300.911L388.055 300.911L388.055 300.911L388.055 298.962L388.055 298.962Z" fill="#b19cfe" fill-rule="nonzero" opacity="1" stroke="none" vectornator:layerName="rect"/>
</g>
<g opacity="1" vectornator:layerName="g">
<path d="M336.771 314.188L371.46 314.188L371.46 314.188L371.46 316.137L371.46 316.137L336.771 316.137L336.771 316.137L336.771 314.188L336.771 314.188Z" fill="#b19cfe" fill-rule="nonzero" opacity="1" stroke="none" vectornator:layerName="rect"/>
<path d="M336.771 310.103L371.46 310.103L371.46 310.103L371.46 312.052L371.46 312.052L336.771 312.052L336.771 312.052L336.771 310.103L336.771 310.103Z" fill="#b19cfe" fill-rule="nonzero" opacity="1" stroke="none" vectornator:layerName="rect"/>
<path d="M336.771 318.177L371.46 318.177L371.46 318.177L371.46 320.126L371.46 320.126L336.771 320.126L336.771 320.126L336.771 318.177L336.771 318.177Z" fill="#b19cfe" fill-rule="nonzero" opacity="1" stroke="none" vectornator:layerName="rect"/>
<path d="M336.771 322.162L371.46 322.162L371.46 322.162L371.46 324.111L371.46 324.111L336.771 324.111L336.771 324.111L336.771 322.162L336.771 322.162Z" fill="#b19cfe" fill-rule="nonzero" opacity="1" stroke="none" vectornator:layerName="rect"/>
<path d="M336.771 326.256L371.46 326.256L371.46 326.256L371.46 328.205L371.46 328.205L336.771 328.205L336.771 328.205L336.771 326.256L336.771 326.256Z" fill="#b19cfe" fill-rule="nonzero" opacity="1" stroke="none" vectornator:layerName="rect"/>
</g>
<g opacity="1" vectornator:layerName="g">
<path d="M375.557 339.833L410.246 339.833L410.246 339.833L410.246 341.782L410.246 341.782L375.557 341.782L375.557 341.782L375.557 339.833L375.557 339.833Z" fill="#b19cfe" fill-rule="nonzero" opacity="1" stroke="none" vectornator:layerName="rect"/>
<path d="M375.557 335.749L410.246 335.749L410.246 335.749L410.246 337.698L410.246 337.698L375.557 337.698L375.557 337.698L375.557 335.749L375.557 335.749Z" fill="#b19cfe" fill-rule="nonzero" opacity="1" stroke="none" vectornator:layerName="rect"/>
<path d="M388.311 343.822L410.245 343.822L410.245 343.822L410.245 345.771L410.245 345.771L388.311 345.771L388.311 345.771L388.311 343.822L388.311 343.822Z" fill="#b19cfe" fill-rule="nonzero" opacity="1" stroke="none" vectornator:layerName="rect"/>
<path d="M375.557 343.822L386.752 343.822L386.752 343.822L386.752 345.771L386.752 345.771L375.557 345.771L375.557 345.771L375.557 343.822L375.557 343.822Z" fill="#b19cfe" fill-rule="nonzero" opacity="1" stroke="none" vectornator:layerName="rect"/>
<path d="M375.557 347.807L402.193 347.807L402.193 347.807L402.193 349.756L402.193 349.756L375.557 349.756L375.557 349.756L375.557 347.807L375.557 347.807Z" fill="#b19cfe" fill-rule="nonzero" opacity="1" stroke="none" vectornator:layerName="rect"/>
<path d="M404.043 347.807L410.245 347.807L410.245 347.807L410.245 349.756L410.245 349.756L404.043 349.756L404.043 349.756L404.043 347.807L404.043 347.807Z" fill="#b19cfe" fill-rule="nonzero" opacity="1" stroke="none" vectornator:layerName="rect"/>
<path d="M384.658 351.901L410.246 351.901L410.246 351.901L410.246 353.85L410.246 353.85L384.658 353.85L384.658 353.85L384.658 351.901L384.658 351.901Z" fill="#b19cfe" fill-rule="nonzero" opacity="1" stroke="none" vectornator:layerName="rect"/>
<path d="M375.557 351.901L383.234 351.901L383.234 351.901L383.234 353.85L383.234 353.85L375.557 353.85L375.557 353.85L375.557 351.901L375.557 351.901Z" fill="#b19cfe" fill-rule="nonzero" opacity="1" stroke="none" vectornator:layerName="rect"/>
</g>
</g>
<path d="M348.653 407.864L294.416 407.864C289.401 407.864 285.335 403.798 285.335 398.783L285.335 380.746C285.335 375.731 289.401 371.665 294.416 371.665L348.653 371.665C353.668 371.665 357.734 375.731 357.734 380.746L357.734 398.783C357.734 403.798 353.668 407.864 348.653 407.864Z" fill="#542fd0" fill-rule="nonzero" opacity="1" stroke="none" vectornator:layerName="path"/>
<g opacity="1" vectornator:layerName="g">
<path d="M434.258 347.825C434.258 349.69 432.746 351.202 430.881 351.202C429.016 351.202 427.504 349.69 427.504 347.825C427.504 345.96 429.016 344.448 430.881 344.448C432.746 344.448 434.258 345.96 434.258 347.825Z" fill="#b19cfe" fill-rule="nonzero" opacity="1" stroke="none" vectornator:layerName="path"/>
<path d="M430.88 354.154C427.39 354.154 424.551 351.315 424.551 347.825C424.551 344.335 427.391 341.496 430.88 341.496C434.37 341.496 437.209 344.335 437.209 347.825C437.21 351.315 434.37 354.154 430.88 354.154ZM430.88 342.27C427.817 342.27 425.326 344.762 425.326 347.824C425.326 350.886 427.818 353.378 430.88 353.378C433.943 353.378 436.434 350.886 436.434 347.824C436.434 344.762 433.943 342.27 430.88 342.27Z" fill="#b19cfe" fill-rule="nonzero" opacity="1" stroke="none" vectornator:layerName="path"/>
</g>
<path d="M460.024 298.274L405.787 298.274C400.772 298.274 396.706 294.208 396.706 289.193L396.706 271.156C396.706 266.141 400.772 262.075 405.787 262.075L460.024 262.075C465.039 262.075 469.105 266.141 469.105 271.156L469.105 289.193C469.105 294.208 465.039 298.274 460.024 298.274Z" fill="#542fd0" fill-rule="nonzero" opacity="1" stroke="none" vectornator:layerName="path"/>
<g opacity="1" vectornator:layerName="g">
<g opacity="1" vectornator:layerName="g">
<path d="M242.526 304.901L265.307 304.901L265.307 304.901L265.307 306.968L265.307 306.968L242.526 306.968L242.526 306.968L242.526 304.901L242.526 304.901Z" fill="#0f1b63" fill-rule="nonzero" opacity="1" stroke="none" vectornator:layerName="rect"/>
<path d="M271.151 304.901L323.908 304.901L323.908 304.901L323.908 306.968L323.908 306.968L271.151 306.968L271.151 306.968L271.151 304.901L271.151 304.901Z" fill="#0f1b63" fill-rule="nonzero" opacity="1" stroke="none" vectornator:layerName="rect"/>
<path d="M296.869 322.686C287.813 322.686 278.737 322.675 269.703 322.653L269.707 320.586C287.773 320.629 306.007 320.629 323.905 320.586L323.91 322.653C314.96 322.675 305.925 322.686 296.869 322.686Z" fill="#0f1b63" fill-rule="nonzero" opacity="1" stroke="none" vectornator:layerName="path"/>
<path d="M261.403 312.744L323.908 312.744L323.908 312.744L323.908 314.811L323.908 314.811L261.403 314.811L261.403 314.811L261.403 312.744L261.403 312.744Z" fill="#0f1b63" fill-rule="nonzero" opacity="1" stroke="none" vectornator:layerName="rect"/>
<path d="M258.003 328.462L323.909 328.462L323.909 328.462L323.909 330.529L323.909 330.529L258.003 330.529L258.003 330.529L258.003 328.462L258.003 328.462Z" fill="#0f1b63" fill-rule="nonzero" opacity="1" stroke="none" vectornator:layerName="rect"/>
<path d="M248.862 336.305L323.909 336.305L323.909 336.305L323.909 338.372L323.909 338.372L248.862 338.372L248.862 338.372L248.862 336.305L248.862 336.305Z" fill="#0f1b63" fill-rule="nonzero" opacity="1" stroke="none" vectornator:layerName="rect"/>
</g>
<g opacity="1" vectornator:layerName="g">
<path d="M119.403 186.717L154.688 186.717L154.688 186.717L154.688 188.784L154.688 188.784L119.403 188.784L119.403 188.784L119.403 186.717L119.403 186.717Z" fill="#b19cfe" fill-rule="nonzero" opacity="1" stroke="none" vectornator:layerName="rect"/>
<path d="M200.285 186.717L236.697 186.717L236.697 186.717L236.697 188.784L236.697 188.784L200.285 188.784L200.285 188.784L200.285 186.717L200.285 186.717Z" fill="#b19cfe" fill-rule="nonzero" opacity="1" stroke="none" vectornator:layerName="rect"/>
<path d="M211.439 194.56L236.697 194.56L236.697 194.56L236.697 196.627L236.697 196.627L211.439 196.627L211.439 196.627L211.439 194.56L211.439 194.56Z" fill="#ffc655" fill-rule="nonzero" opacity="1" stroke="none" vectornator:layerName="rect"/>
<path d="M201.049 210.279L236.697 210.279L236.697 210.279L236.697 212.346L236.697 212.346L201.049 212.346L201.049 212.346L201.049 210.279L201.049 210.279Z" fill="#ffc655" fill-rule="nonzero" opacity="1" stroke="none" vectornator:layerName="rect"/>
<path d="M194.067 218.121L236.697 218.121L236.697 218.121L236.697 220.188L236.697 220.188L194.067 220.188L194.067 220.188L194.067 218.121L194.067 218.121Z" fill="#ffc655" fill-rule="nonzero" opacity="1" stroke="none" vectornator:layerName="rect"/>
<path d="M181.862 227.291L236.697 227.291L236.697 227.291L236.697 229.358L236.697 229.358L181.862 229.358L181.862 229.358L181.862 227.291L181.862 227.291Z" fill="#ffc655" fill-rule="nonzero" opacity="1" stroke="none" vectornator:layerName="rect"/>
<path d="M160.407 186.717L195.692 186.717L195.692 186.717L195.692 188.784L195.692 188.784L160.407 188.784L160.407 188.784L160.407 186.717L160.407 186.717Z" fill="#ffc655" fill-rule="nonzero" opacity="1" stroke="none" vectornator:layerName="rect"/>
<path d="M208.212 204.502C202.822 204.502 197.413 204.494 186.595 204.479L179.562 204.469L179.564 202.402L186.598 202.412C208.23 202.442 208.232 202.442 229.711 202.412L236.697 202.402L236.697 204.469L229.714 204.479C218.973 204.495 213.602 204.502 208.212 204.502Z" fill="#ffc655" fill-rule="nonzero" opacity="1" stroke="none" vectornator:layerName="path"/>
<path d="M146.442 204.502C137.386 204.502 128.351 204.491 119.401 204.47L119.405 202.403C137.303 202.446 155.539 202.446 173.605 202.403L173.609 204.47C164.574 204.492 155.497 204.502 146.442 204.502Z" fill="#b19cfe" fill-rule="nonzero" opacity="1" stroke="none" vectornator:layerName="path"/>
<path d="M119.403 194.56L206.428 194.56L206.428 194.56L206.428 196.627L206.428 196.627L119.403 196.627L119.403 196.627L119.403 194.56L119.403 194.56Z" fill="#b19cfe" fill-rule="nonzero" opacity="1" stroke="none" vectornator:layerName="rect"/>
<path d="M119.403 227.291L177.031 227.291L177.031 227.291L177.031 229.358L177.031 229.358L119.403 229.358L119.403 229.358L119.403 227.291L119.403 227.291Z" fill="#b19cfe" fill-rule="nonzero" opacity="1" stroke="none" vectornator:layerName="rect"/>
<path d="M119.403 210.279L196.549 210.279L196.549 210.279L196.549 212.346L196.549 212.346L119.403 212.346L119.403 212.346L119.403 210.279L119.403 210.279Z" fill="#b19cfe" fill-rule="nonzero" opacity="1" stroke="none" vectornator:layerName="rect"/>
<path d="M119.403 218.121L189.32 218.121L189.32 218.121L189.32 220.188L189.32 220.188L119.403 220.188L119.403 220.188L119.403 218.121L119.403 218.121Z" fill="#b19cfe" fill-rule="nonzero" opacity="1" stroke="none" vectornator:layerName="rect"/>
<g opacity="1" vectornator:layerName="g">
<path d="M110.592 187.751C110.592 186.964 111.23 186.326 112.017 186.326C112.804 186.326 113.442 186.964 113.442 187.751C113.442 188.538 112.804 189.176 112.017 189.176C111.23 189.176 110.592 188.538 110.592 187.751Z" fill="#d42190" fill-rule="nonzero" opacity="1" stroke="none" vectornator:layerName="circle"/>
<path d="M113.442 195.594C113.442 196.381 112.804 197.019 112.017 197.019C111.23 197.019 110.592 196.381 110.592 195.594C110.592 194.807 111.23 194.169 112.017 194.169C112.804 194.168 113.442 194.806 113.442 195.594Z" fill="#d42190" fill-rule="nonzero" opacity="1" stroke="none" vectornator:layerName="path"/>
<path d="M110.592 203.436C110.592 202.649 111.23 202.011 112.017 202.011C112.804 202.011 113.442 202.649 113.442 203.436C113.442 204.223 112.804 204.861 112.017 204.861C111.23 204.861 110.592 204.223 110.592 203.436Z" fill="#d42190" fill-rule="nonzero" opacity="1" stroke="none" vectornator:layerName="circle"/>
<path d="M113.442 211.279C113.442 212.066 112.804 212.704 112.017 212.704C111.23 212.704 110.592 212.066 110.592 211.279C110.592 210.492 111.23 209.854 112.017 209.854C112.804 209.854 113.442 210.492 113.442 211.279Z" fill="#d42190" fill-rule="nonzero" opacity="1" stroke="none" vectornator:layerName="path"/>
<path d="M110.592 219.155C110.592 218.368 111.23 217.73 112.017 217.73C112.804 217.73 113.442 218.368 113.442 219.155C113.442 219.942 112.804 220.58 112.017 220.58C111.23 220.58 110.592 219.942 110.592 219.155Z" fill="#d42190" fill-rule="nonzero" opacity="1" stroke="none" vectornator:layerName="circle"/>
<path d="M113.442 228.324C113.442 229.111 112.804 229.749 112.017 229.749C111.23 229.749 110.592 229.111 110.592 228.324C110.592 227.537 111.23 226.899 112.017 226.899C112.804 226.899 113.442 227.537 113.442 228.324Z" fill="#d42190" fill-rule="nonzero" opacity="1" stroke="none" vectornator:layerName="path"/>
</g>
<path d="M246.103 232.997C245.817 232.997 245.586 232.766 245.586 232.48L245.586 186.59C245.586 186.304 245.817 186.073 246.103 186.073C246.389 186.073 246.62 186.304 246.62 186.59L246.62 232.481C246.619 232.766 246.388 232.997 246.103 232.997Z" fill="#d42190" fill-rule="nonzero" opacity="1" stroke="none" vectornator:layerName="path"/>
</g>
<g opacity="1" vectornator:layerName="g">
<path d="M158.137 331.986L154.96 331.986C154.667 331.986 154.431 331.749 154.431 331.457C154.431 331.164 154.668 330.928 154.96 330.928L158.137 330.928C158.43 330.928 158.666 331.165 158.666 331.457C158.667 331.749 158.43 331.986 158.137 331.986ZM151.784 331.986L148.608 331.986C148.315 331.986 148.079 331.749 148.079 331.457C148.079 331.164 148.316 330.928 148.608 330.928L151.784 330.928C152.077 330.928 152.313 331.165 152.313 331.457C152.314 331.749 152.077 331.986 151.784 331.986ZM145.431 331.986L144.145 331.986C143.422 331.986 142.707 331.801 142.078 331.452C141.821 331.31 141.73 330.988 141.871 330.732C142.014 330.475 142.339 330.385 142.591 330.526C143.064 330.788 143.601 330.927 144.145 330.927L145.431 330.927C145.724 330.927 145.96 331.164 145.96 331.456C145.961 331.749 145.724 331.986 145.431 331.986ZM140.493 329.048C140.25 329.048 140.031 328.879 139.977 328.631C139.912 328.332 139.879 328.025 139.879 327.72L139.879 325.349C139.879 325.056 140.116 324.82 140.408 324.82C140.7 324.82 140.937 325.057 140.937 325.349L140.937 327.72C140.937 327.949 140.962 328.181 141.011 328.407C141.073 328.693 140.892 328.975 140.607 329.037C140.568 329.044 140.53 329.048 140.493 329.048ZM140.408 322.702C140.115 322.702 139.879 322.465 139.879 322.173L139.879 318.996C139.879 318.703 140.116 318.467 140.408 318.467C140.7 318.467 140.937 318.704 140.937 318.996L140.937 322.173C140.937 322.465 140.701 322.702 140.408 322.702ZM140.408 316.349C140.115 316.349 139.879 316.112 139.879 315.819L139.879 312.642C139.879 312.349 140.116 312.113 140.408 312.113C140.7 312.113 140.937 312.35 140.937 312.642L140.937 315.819C140.937 316.112 140.701 316.349 140.408 316.349ZM140.408 309.995C140.115 309.995 139.879 309.758 139.879 309.466L139.879 306.289C139.879 305.996 140.116 305.76 140.408 305.76C140.7 305.76 140.937 305.997 140.937 306.289L140.937 309.466C140.937 309.759 140.701 309.995 140.408 309.995ZM140.408 303.642C140.115 303.642 139.879 303.405 139.879 303.113L139.879 302.726C139.879 301.649 140.281 300.62 141.012 299.83C141.211 299.616 141.545 299.602 141.761 299.801C141.975 299.999 141.989 300.335 141.79 300.549C141.241 301.143 140.938 301.916 140.938 302.727L140.938 303.114C140.937 303.406 140.701 303.642 140.408 303.642ZM160.121 299.519L156.945 299.519C156.652 299.519 156.416 299.282 156.416 298.99C156.416 298.698 156.653 298.461 156.945 298.461L160.121 298.461C160.414 298.461 160.651 298.698 160.651 298.99C160.651 299.282 160.414 299.519 160.121 299.519ZM153.768 299.519L150.592 299.519C150.299 299.519 150.063 299.282 150.063 298.99C150.063 298.698 150.3 298.461 150.592 298.461L153.768 298.461C154.061 298.461 154.297 298.698 154.297 298.99C154.297 299.282 154.061 299.519 153.768 299.519ZM147.415 299.519L144.239 299.519C143.946 299.519 143.71 299.282 143.71 298.99C143.71 298.698 143.947 298.461 144.239 298.461L147.415 298.461C147.708 298.461 147.944 298.698 147.944 298.99C147.944 299.282 147.708 299.519 147.415 299.519Z" fill="#0f1b63" fill-rule="nonzero" opacity="1" stroke="none" vectornator:layerName="path"/>
<path d="M152.655 318.238L169.66 318.238L169.66 318.238L169.66 320.356L169.66 320.356L152.655 320.356L152.655 320.356L152.655 318.238L152.655 318.238Z" fill="#0f1b63" fill-rule="nonzero" opacity="1" stroke="none" vectornator:layerName="rect"/>
<path d="M174.111 318.238L201.583 318.238L201.583 318.238L201.583 320.356L201.583 320.356L174.111 320.356L174.111 320.356L174.111 318.238L174.111 318.238Z" fill="#0f1b63" fill-rule="nonzero" opacity="1" stroke="none" vectornator:layerName="rect"/>
<path d="M184.578 336.254L201.582 336.254L201.582 336.254L201.582 338.372L201.582 338.372L184.578 338.372L184.578 338.372L184.578 336.254L184.578 336.254Z" fill="#0f1b63" fill-rule="nonzero" opacity="1" stroke="none" vectornator:layerName="rect"/>
<path d="M152.655 336.254L180.128 336.254L180.128 336.254L180.128 338.372L180.128 338.372L152.655 338.372L152.655 338.372L152.655 336.254L152.655 336.254Z" fill="#0f1b63" fill-rule="nonzero" opacity="1" stroke="none" vectornator:layerName="rect"/>
<path d="M152.655 324.374L182.564 324.374L182.564 324.374L182.564 326.492L182.564 326.492L152.655 326.492L152.655 326.492L152.655 324.374L152.655 324.374Z" fill="#0f1b63" fill-rule="nonzero" opacity="1" stroke="none" vectornator:layerName="rect"/>
<path d="M187.014 324.374L201.582 324.374L201.582 324.374L201.582 326.492L201.582 326.492L187.014 326.492L187.014 326.492L187.014 324.374L187.014 324.374Z" fill="#0f1b63" fill-rule="nonzero" opacity="1" stroke="none" vectornator:layerName="rect"/>
<path d="M152.655 330.398L177.268 330.398L177.268 330.398L177.268 332.516L177.268 332.516L152.655 332.516L152.655 332.516L152.655 330.398L152.655 330.398Z" fill="#0f1b63" fill-rule="nonzero" opacity="1" stroke="none" vectornator:layerName="rect"/>
<path d="M184.881 330.398L201.582 330.398L201.582 330.398L201.582 332.516L201.582 332.516L184.881 332.516L184.881 332.516L184.881 330.398L184.881 330.398Z" fill="#0f1b63" fill-rule="nonzero" opacity="1" stroke="none" vectornator:layerName="rect"/>
<g opacity="1" vectornator:layerName="g">
<path d="M152.655 292.654L161.557 292.654L161.557 292.654L161.557 309.23L161.557 309.23L152.655 309.23L152.655 309.23L152.655 292.654L152.655 292.654Z" fill="#ffc655" fill-rule="nonzero" opacity="1" stroke="none" vectornator:layerName="rect"/>
<path d="M166.621 286.361L175.523 286.361L175.523 286.361L175.523 309.229L175.523 309.229L166.621 309.229L166.621 309.229L166.621 286.361L166.621 286.361Z" fill="#d42190" fill-rule="nonzero" opacity="1" stroke="none" vectornator:layerName="rect"/>
<path d="M180.127 273.315L189.029 273.315L189.029 273.315L189.029 309.229L189.029 309.229L180.127 309.229L180.127 309.229L180.127 273.315L180.127 273.315Z" fill="#542fd0" fill-rule="nonzero" opacity="1" stroke="none" vectornator:layerName="rect"/>
</g>
<path d="M179.62 330.398L182.815 330.398L182.815 330.398L182.815 332.516L182.815 332.516L179.62 332.516L179.62 332.516L179.62 330.398L179.62 330.398Z" fill="#0f1b63" fill-rule="nonzero" opacity="1" stroke="none" vectornator:layerName="rect"/>
</g>
<g opacity="1" vectornator:layerName="g">
<path d="M256.468 217.052L323.107 217.052L323.107 217.052L323.107 291.402L323.107 291.402L256.468 291.402L256.468 291.402L256.468 217.052L256.468 217.052Z" fill="#b19cfe" fill-rule="nonzero" opacity="1" stroke="none" vectornator:layerName="rect"/>
<g opacity="1" vectornator:layerName="g">
<path d="M261.848 230.266L308.314 230.266L308.314 230.266L308.314 231.816L308.314 231.816L261.848 231.816L261.848 231.816L261.848 230.266L261.848 230.266Z" fill="#ffffff" fill-rule="nonzero" opacity="1" stroke="none" vectornator:layerName="rect"/>
<path d="M285.032 243.098C277.052 243.098 269.087 243.09 261.847 243.072L261.851 241.522C276.329 241.558 293.7 241.558 308.313 241.522L308.317 243.072C301.008 243.09 293.012 243.098 285.032 243.098Z" fill="#ffffff" fill-rule="nonzero" opacity="1" stroke="none" vectornator:layerName="path"/>
<path d="M261.848 235.894L308.314 235.894L308.314 235.894L308.314 237.444L308.314 237.444L261.848 237.444L261.848 237.444L261.848 235.894L261.848 235.894Z" fill="#ffffff" fill-rule="nonzero" opacity="1" stroke="none" vectornator:layerName="rect"/>
<path d="M261.848 247.176L295.722 247.176L295.722 247.176L295.722 248.726L295.722 248.726L261.848 248.726L261.848 248.726L261.848 247.176L261.848 247.176Z" fill="#ffffff" fill-rule="nonzero" opacity="1" stroke="none" vectornator:layerName="rect"/>
<path d="M261.848 285.061L308.314 285.061L308.314 285.061L308.314 286.611L308.314 286.611L261.848 286.611L261.848 286.611L261.848 285.061L261.848 285.061Z" fill="#ffffff" fill-rule="nonzero" opacity="1" stroke="none" vectornator:layerName="rect"/>
<path d="M308.313 275.356C293.698 275.321 276.328 275.321 261.851 275.356L261.847 273.806C276.328 273.772 293.701 273.772 308.317 273.806L308.313 275.356Z" fill="#ffffff" fill-rule="nonzero" opacity="1" stroke="none" vectornator:layerName="path"/>
<path d="M261.848 279.434L308.314 279.434L308.314 279.434L308.314 280.984L308.314 280.984L261.848 280.984L261.848 280.984L261.848 279.434L261.848 279.434Z" fill="#ffffff" fill-rule="nonzero" opacity="1" stroke="none" vectornator:layerName="rect"/>
<path d="M261.848 268.152L295.722 268.152L295.722 268.152L295.722 269.702L295.722 269.702L261.848 269.702L261.848 269.702L261.848 268.152L261.848 268.152Z" fill="#ffffff" fill-rule="nonzero" opacity="1" stroke="none" vectornator:layerName="rect"/>
</g>
<path d="M324.14 292.435L255.434 292.435L255.434 215.995L324.14 215.995L324.14 292.435ZM256.468 291.402L323.107 291.402L323.107 217.028L256.468 217.028L256.468 291.402Z" fill="#542fd0" fill-rule="nonzero" opacity="1" stroke="none" vectornator:layerName="path"/>
<path d="M255.951 216.511L323.624 216.511L323.624 216.511L323.624 225.417L323.624 225.417L255.951 225.417L255.951 225.417L255.951 216.511L255.951 216.511Z" fill="#542fd0" fill-rule="nonzero" opacity="1" stroke="none" vectornator:layerName="rect"/>
<g opacity="1" vectornator:layerName="g">
<path d="M304.298 264.192C304.115 264.192 303.933 264.128 303.784 263.998L298.577 259.397C298.41 259.25 298.316 259.038 298.316 258.816C298.316 258.594 298.411 258.382 298.577 258.235L303.784 253.634C304.105 253.351 304.594 253.379 304.879 253.702C305.162 254.023 305.131 254.512 304.811 254.796L300.261 258.816L304.811 262.836C305.131 263.12 305.161 263.609 304.879 263.93C304.726 264.104 304.512 264.192 304.298 264.192Z" fill="#ffffff" fill-rule="nonzero" opacity="1" stroke="none" vectornator:layerName="path"/>
<path d="M312.331 264.192C312.117 264.192 311.903 264.104 311.75 263.93C311.467 263.609 311.498 263.12 311.818 262.836L316.368 258.816L311.818 254.796C311.498 254.512 311.468 254.023 311.75 253.702C312.034 253.381 312.523 253.352 312.845 253.634L318.052 258.235C318.219 258.382 318.313 258.594 318.313 258.816C318.313 259.038 318.218 259.249 318.052 259.397L312.845 263.998C312.697 264.128 312.514 264.192 312.331 264.192Z" fill="#ffffff" fill-rule="nonzero" opacity="1" stroke="none" vectornator:layerName="path"/>
</g>
<g opacity="1" vectornator:layerName="g">
<path d="M262.36 220.965L264.165 219.16C264.336 218.989 264.336 218.713 264.165 218.542C263.994 218.371 263.718 218.371 263.547 218.542L261.742 220.347L259.937 218.542C259.766 218.371 259.49 218.371 259.319 218.542C259.148 218.713 259.148 218.989 259.319 219.16L261.124 220.965L259.319 222.77C259.148 222.941 259.148 223.217 259.319 223.388C259.404 223.473 259.516 223.516 259.628 223.516C259.74 223.516 259.852 223.473 259.937 223.388L261.742 221.583L263.547 223.388C263.632 223.473 263.744 223.516 263.856 223.516C263.968 223.516 264.08 223.473 264.165 223.388C264.336 223.217 264.336 222.941 264.165 222.77L262.36 220.965Z" fill="#ffffff" fill-rule="nonzero" opacity="1" stroke="none" vectornator:layerName="path"/>
<path d="M270.103 223.516C268.696 223.516 267.551 222.371 267.551 220.965C267.551 219.558 268.696 218.414 270.103 218.414C271.51 218.414 272.654 219.559 272.654 220.965C272.654 222.372 271.51 223.516 270.103 223.516ZM270.103 219.23C269.147 219.23 268.369 220.008 268.369 220.964C268.369 221.92 269.147 222.698 270.103 222.698C271.059 222.698 271.837 221.92 271.837 220.964C271.837 220.008 271.059 219.23 270.103 219.23Z" fill="#ffffff" fill-rule="nonzero" opacity="1" stroke="none" vectornator:layerName="path"/>
<path d="M279.974 223.516L275.816 223.516C275.574 223.516 275.379 223.32 275.379 223.079C275.379 222.838 275.574 222.642 275.816 222.642L279.974 222.642C280.216 222.642 280.411 222.838 280.411 223.079C280.411 223.32 280.215 223.516 279.974 223.516Z" fill="#ffffff" fill-rule="nonzero" opacity="1" stroke="none" vectornator:layerName="path"/>
</g>
</g>
</g>
<path d="M235.172 116.956L229.154 118.86C228.954 118.923 228.765 119.006 228.585 119.1C226.772 115.984 224.448 113.271 221.757 111.035C221.883 110.869 222 110.695 222.097 110.506L224.98 104.891C225.877 103.144 225.185 100.993 223.438 100.095L217.823 97.212C216.076 96.316 213.924 97.007 213.027 98.754L210.144 104.369C210.047 104.558 209.974 104.754 209.913 104.952C206.618 104.091 203.158 103.778 199.664 104.079C199.637 103.878 199.596 103.676 199.533 103.476L197.629 97.458C197.037 95.585 195.031 94.543 193.158 95.136L187.14 97.04C185.267 97.632 184.226 99.638 184.818 101.511L186.722 107.529C186.785 107.729 186.868 107.918 186.962 108.098C183.846 109.911 181.133 112.235 178.897 114.926C178.731 114.8 178.557 114.683 178.368 114.586L172.753 111.703C171.912 111.271 170.953 111.19 170.052 111.475C170.047 111.477 170.041 111.478 170.036 111.481C169.13 111.772 168.392 112.399 167.957 113.245L165.074 118.86L165.074 118.86C164.177 120.607 164.869 122.758 166.616 123.656L172.231 126.539C172.421 126.637 172.617 126.707 172.815 126.768C171.954 130.063 171.64 133.524 171.941 137.018C171.74 137.045 171.538 137.086 171.338 137.149L165.32 139.053C163.447 139.645 162.406 141.651 162.998 143.524L164.902 149.542C165.494 151.415 167.5 152.456 169.373 151.864L175.391 149.96C175.591 149.897 175.78 149.814 175.96 149.72C177.773 152.837 180.098 155.55 182.79 157.787C182.665 157.952 182.546 158.124 182.448 158.314L179.565 163.929C179.13 164.775 179.051 165.741 179.342 166.646C179.633 167.552 180.26 168.29 181.106 168.724L186.721 171.607L186.721 171.607C187.589 172.053 188.557 172.106 189.421 171.832C190.296 171.555 191.065 170.943 191.516 170.064L194.399 164.449C194.497 164.259 194.567 164.063 194.628 163.865C197.923 164.726 201.384 165.039 204.879 164.739C204.906 164.94 204.947 165.142 205.01 165.343L206.914 171.361C207.506 173.234 209.512 174.275 211.385 173.683L217.403 171.779C219.276 171.187 220.317 169.181 219.725 167.308L217.821 161.29C217.758 161.09 217.675 160.901 217.581 160.721C220.698 158.908 223.411 156.583 225.648 153.891C225.813 154.017 225.985 154.135 226.176 154.233L231.791 157.116C232.659 157.562 233.627 157.615 234.492 157.342C235.367 157.065 236.136 156.453 236.587 155.574L239.471 149.959C240.368 148.212 239.676 146.06 237.929 145.163L232.314 142.28C232.125 142.183 231.929 142.11 231.73 142.048C232.59 138.753 232.904 135.293 232.603 131.8C232.804 131.773 233.006 131.732 233.207 131.669L239.225 129.765C241.098 129.173 242.139 127.167 241.547 125.295L239.643 119.277C239.05 117.406 237.045 116.364 235.172 116.956ZM207.317 150.359C198.522 153.141 189.103 148.249 186.321 139.454C183.539 130.659 188.431 121.24 197.226 118.458C206.021 115.676 215.439 120.568 218.221 129.363C221.003 138.159 216.111 147.577 207.317 150.359Z" fill="#0f1b63" fill-rule="nonzero" opacity="1" stroke="none" vectornator:layerName="path"/>
<g opacity="1" vectornator:layerName="g">
<path d="M227.573 256.675L226.11 260.257C226.061 260.376 226.026 260.497 226 260.619C223.821 260.251 221.631 260.283 219.522 260.674C219.493 260.55 219.457 260.426 219.406 260.306L217.89 256.746C217.418 255.638 216.134 255.121 215.026 255.592L211.466 257.107C210.359 257.578 209.841 258.864 210.312 259.971L211.828 263.531C211.879 263.651 211.943 263.762 212.012 263.869C210.315 265.084 208.81 266.592 207.582 268.356C207.477 268.29 207.366 268.23 207.246 268.181L203.664 266.718C202.549 266.263 201.272 266.799 200.817 267.914L199.354 271.496C198.899 272.611 199.435 273.888 200.55 274.343L204.132 275.806C204.251 275.855 204.372 275.89 204.494 275.916C204.126 278.095 204.158 280.285 204.549 282.394C204.425 282.423 204.301 282.459 204.181 282.51L200.621 284.026C200.087 284.253 199.674 284.673 199.455 285.209C199.454 285.212 199.452 285.216 199.451 285.219C199.233 285.76 199.239 286.354 199.467 286.89L200.983 290.45L200.983 290.45C201.455 291.557 202.74 292.075 203.847 291.604L207.407 290.088C207.527 290.037 207.638 289.972 207.744 289.903C208.959 291.601 210.467 293.106 212.232 294.334C212.166 294.439 212.106 294.551 212.057 294.67L210.594 298.252C210.139 299.367 210.675 300.644 211.79 301.099L215.372 302.562C216.487 303.017 217.764 302.481 218.219 301.366L219.682 297.784C219.731 297.665 219.766 297.544 219.792 297.422C221.971 297.79 224.162 297.758 226.271 297.366C226.3 297.49 226.334 297.613 226.386 297.734L227.902 301.294C228.13 301.831 228.554 302.246 229.095 302.464C229.636 302.682 230.23 302.676 230.766 302.448L234.326 300.932L234.326 300.932C234.876 300.698 235.281 300.263 235.491 299.748C235.704 299.227 235.717 298.625 235.48 298.068L233.965 294.508C233.914 294.387 233.849 294.277 233.779 294.171C235.477 292.956 236.982 291.448 238.21 289.683C238.316 289.749 238.427 289.809 238.546 289.858L242.128 291.321C243.243 291.776 244.52 291.24 244.975 290.125L246.438 286.543C246.893 285.428 246.357 284.151 245.242 283.696L241.66 282.233C241.541 282.184 241.42 282.149 241.298 282.123C241.666 279.944 241.634 277.753 241.242 275.644C241.366 275.615 241.489 275.581 241.61 275.529L245.17 274.013C245.72 273.779 246.125 273.343 246.335 272.829C246.548 272.308 246.561 271.706 246.323 271.149L244.808 267.588C244.336 266.48 243.051 265.963 241.944 266.434L238.384 267.95C238.264 268.001 238.153 268.065 238.046 268.134C236.831 266.437 235.323 264.932 233.559 263.704C233.625 263.599 233.685 263.487 233.734 263.368L235.197 259.786C235.652 258.671 235.116 257.394 234.001 256.939L230.419 255.476C229.305 255.023 228.028 255.56 227.573 256.675ZM232.391 282.898C230.253 288.133 224.255 290.653 219.02 288.516C213.785 286.378 211.265 280.38 213.402 275.145C215.54 269.91 221.538 267.39 226.773 269.528C232.008 271.665 234.528 277.663 232.391 282.898Z" fill="#b19cfe" fill-rule="nonzero" opacity="1" stroke="none" vectornator:layerName="path"/>
<path d="M203.848 238.489L201.944 240.418C201.881 240.482 201.826 240.551 201.776 240.623C200.463 239.803 199.037 239.238 197.566 238.929C197.581 238.841 197.59 238.751 197.589 238.66L197.559 235.95C197.549 235.107 196.855 234.428 196.012 234.438L193.301 234.469C192.458 234.479 191.779 235.172 191.789 236.016L191.82 238.726C191.821 238.817 191.833 238.906 191.849 238.994C190.425 239.328 189.048 239.902 187.782 240.717C187.731 240.646 187.676 240.578 187.611 240.514L185.682 238.61C185.082 238.018 184.111 238.024 183.519 238.624L181.615 240.553C181.023 241.153 181.029 242.124 181.629 242.716L183.558 244.62C183.622 244.683 183.691 244.738 183.763 244.788C182.943 246.101 182.378 247.528 182.069 248.998C181.981 248.983 181.891 248.974 181.8 248.975L179.09 249.006C178.684 249.011 178.304 249.172 178.019 249.461C178.017 249.463 178.015 249.464 178.014 249.466C177.728 249.758 177.574 250.144 177.578 250.553L177.609 253.263L177.609 253.263C177.619 254.106 178.313 254.785 179.156 254.775L181.867 254.744C181.959 254.743 182.047 254.731 182.135 254.714C182.469 256.138 183.043 257.515 183.858 258.782C183.787 258.833 183.719 258.889 183.655 258.953L181.751 260.882C181.159 261.482 181.165 262.453 181.765 263.045L183.694 264.949C184.294 265.541 185.265 265.535 185.857 264.935L187.761 263.006C187.824 262.942 187.879 262.873 187.929 262.801C189.242 263.621 190.669 264.186 192.14 264.495C192.125 264.583 192.115 264.672 192.116 264.764L192.147 267.474C192.152 267.883 192.315 268.265 192.607 268.551C192.899 268.837 193.285 268.991 193.694 268.987L196.405 268.957L196.405 268.957C196.824 268.952 197.202 268.778 197.476 268.501C197.753 268.221 197.922 267.834 197.917 267.41L197.886 264.7C197.885 264.608 197.872 264.52 197.856 264.432C199.28 264.098 200.657 263.524 201.924 262.709C201.975 262.78 202.031 262.849 202.095 262.912L204.024 264.816C204.624 265.409 205.595 265.402 206.187 264.802L208.091 262.873C208.683 262.273 208.677 261.302 208.077 260.71L206.148 258.806C206.084 258.743 206.015 258.688 205.943 258.638C206.763 257.325 207.328 255.898 207.638 254.427C207.726 254.442 207.815 254.452 207.907 254.451L210.617 254.42C211.036 254.415 211.415 254.242 211.688 253.964C211.965 253.683 212.134 253.297 212.129 252.873L212.099 250.162C212.089 249.319 211.395 248.64 210.552 248.65L207.842 248.681C207.751 248.682 207.662 248.694 207.574 248.71C207.24 247.286 206.666 245.909 205.851 244.643C205.922 244.592 205.991 244.536 206.054 244.472L207.958 242.543C208.55 241.943 208.544 240.972 207.944 240.38L206.015 238.476C205.411 237.883 204.441 237.889 203.848 238.489ZM199.965 256.758C197.182 259.578 192.625 259.608 189.805 256.825C186.985 254.042 186.955 249.485 189.738 246.665C192.52 243.846 197.078 243.816 199.898 246.598C202.717 249.382 202.747 253.939 199.965 256.758Z" fill="none" opacity="1" stroke="#b19cfe" stroke-linecap="butt" stroke-linejoin="miter" stroke-width="0.5" vectornator:layerName="path"/>
</g>
<g opacity="1" vectornator:layerName="g">
<g opacity="1" vectornator:layerName="g">
<path d="M39.249 213.29L51.604 213.29L51.604 213.29L51.604 215.357L51.604 215.357L39.249 215.357L39.249 215.357L39.249 213.29L39.249 213.29Z" fill="#0f1b63" fill-rule="nonzero" opacity="1" stroke="none" vectornator:layerName="rect"/>
<path d="M56.71 213.29L88.224 213.29L88.224 213.29L88.224 215.357L88.224 215.357L56.71 215.357L56.71 215.357L56.71 213.29L56.71 213.29Z" fill="#0f1b63" fill-rule="nonzero" opacity="1" stroke="none" vectornator:layerName="rect"/>
<path d="M68.717 235.479L88.224 235.479L88.224 235.479L88.224 237.546L88.224 237.546L68.717 237.546L68.717 237.546L68.717 235.479L68.717 235.479Z" fill="#0f1b63" fill-rule="nonzero" opacity="1" stroke="none" vectornator:layerName="rect"/>
<path d="M39.249 235.479L63.612 235.479L63.612 235.479L63.612 237.546L63.612 237.546L39.249 237.546L39.249 237.546L39.249 235.479L39.249 235.479Z" fill="#0f1b63" fill-rule="nonzero" opacity="1" stroke="none" vectornator:layerName="rect"/>
<path d="M39.249 220.846L66.407 220.846L66.407 220.846L66.407 222.913L66.407 222.913L39.249 222.913L39.249 222.913L39.249 220.846L39.249 220.846Z" fill="#0f1b63" fill-rule="nonzero" opacity="1" stroke="none" vectornator:layerName="rect"/>
<path d="M71.512 220.846L88.224 220.846L88.224 220.846L88.224 222.913L88.224 222.913L71.512 222.913L71.512 222.913L71.512 220.846L71.512 220.846Z" fill="#0f1b63" fill-rule="nonzero" opacity="1" stroke="none" vectornator:layerName="rect"/>
<path d="M39.249 228.266L60.331 228.266L60.331 228.266L60.331 230.333L60.331 230.333L39.249 230.333L39.249 230.333L39.249 228.266L39.249 228.266Z" fill="#0f1b63" fill-rule="nonzero" opacity="1" stroke="none" vectornator:layerName="rect"/>
<path d="M69.065 228.266L88.224 228.266L88.224 228.266L88.224 230.333L88.224 230.333L69.065 230.333L69.065 230.333L69.065 228.266L69.065 228.266Z" fill="#0f1b63" fill-rule="nonzero" opacity="1" stroke="none" vectornator:layerName="rect"/>
<path d="M63.029 228.266L66.694 228.266L66.694 228.266L66.694 230.333L66.694 230.333L63.029 230.333L63.029 230.333L63.029 228.266L63.029 228.266Z" fill="#0f1b63" fill-rule="nonzero" opacity="1" stroke="none" vectornator:layerName="rect"/>
</g>
<g opacity="1" vectornator:layerName="g">
<path d="M364.877 406.848L377.232 406.848L377.232 406.848L377.232 408.915L377.232 408.915L364.877 408.915L364.877 408.915L364.877 406.848L364.877 406.848Z" fill="#0f1b63" fill-rule="nonzero" opacity="1" stroke="none" vectornator:layerName="rect"/>
<path d="M382.337 406.848L413.851 406.848L413.851 406.848L413.851 408.915L413.851 408.915L382.337 408.915L382.337 408.915L382.337 406.848L382.337 406.848Z" fill="#0f1b63" fill-rule="nonzero" opacity="1" stroke="none" vectornator:layerName="rect"/>
<path d="M394.344 429.037L413.851 429.037L413.851 429.037L413.851 431.104L413.851 431.104L394.344 431.104L394.344 431.104L394.344 429.037L394.344 429.037Z" fill="#0f1b63" fill-rule="nonzero" opacity="1" stroke="none" vectornator:layerName="rect"/>
<path d="M364.877 429.037L389.239 429.037L389.239 429.037L389.239 431.104L389.239 431.104L364.877 431.104L364.877 431.104L364.877 429.037L364.877 429.037Z" fill="#0f1b63" fill-rule="nonzero" opacity="1" stroke="none" vectornator:layerName="rect"/>
<path d="M364.877 414.405L392.034 414.405L392.034 414.405L392.034 416.472L392.034 416.472L364.877 416.472L364.877 416.472L364.877 414.405L364.877 414.405Z" fill="#0f1b63" fill-rule="nonzero" opacity="1" stroke="none" vectornator:layerName="rect"/>
<path d="M397.139 414.405L413.851 414.405L413.851 414.405L413.851 416.472L413.851 416.472L397.139 416.472L397.139 416.472L397.139 414.405L397.139 414.405Z" fill="#0f1b63" fill-rule="nonzero" opacity="1" stroke="none" vectornator:layerName="rect"/>
<path d="M364.877 421.824L385.959 421.824L385.959 421.824L385.959 423.891L385.959 423.891L364.877 423.891L364.877 423.891L364.877 421.824L364.877 421.824Z" fill="#0f1b63" fill-rule="nonzero" opacity="1" stroke="none" vectornator:layerName="rect"/>
<path d="M394.692 421.824L413.851 421.824L413.851 421.824L413.851 423.891L413.851 423.891L394.692 423.891L394.692 423.891L394.692 421.824L394.692 421.824Z" fill="#0f1b63" fill-rule="nonzero" opacity="1" stroke="none" vectornator:layerName="rect"/>
<path d="M388.656 421.824L392.321 421.824L392.321 421.824L392.321 423.891L392.321 423.891L388.656 423.891L388.656 423.891L388.656 421.824L388.656 421.824Z" fill="#0f1b63" fill-rule="nonzero" opacity="1" stroke="none" vectornator:layerName="rect"/>
</g>
</g>
<path d="M405.94 151.791L401.088 152.83C400.927 152.865 400.773 152.915 400.625 152.975C399.44 150.401 397.824 148.104 395.885 146.152C395.996 146.032 396.101 145.904 396.191 145.763L398.868 141.585C399.701 140.285 399.321 138.55 398.021 137.717L393.843 135.04C392.543 134.208 390.808 134.587 389.975 135.888L387.298 140.066C387.208 140.206 387.136 140.354 387.073 140.505C384.559 139.585 381.875 139.08 379.118 139.054C379.112 138.894 379.095 138.734 379.061 138.572L378.022 133.72C377.699 132.21 376.208 131.245 374.698 131.568L369.846 132.607C368.336 132.93 367.371 134.422 367.694 135.932L368.733 140.784C368.768 140.945 368.818 141.099 368.878 141.247C366.304 142.432 364.007 144.048 362.055 145.986C361.935 145.875 361.807 145.77 361.667 145.68L357.489 143.003C356.863 142.602 356.119 142.467 355.393 142.622C355.389 142.623 355.384 142.624 355.38 142.625C354.649 142.785 354.025 143.22 353.621 143.85L350.944 148.028L350.944 148.028C350.112 149.328 350.491 151.063 351.792 151.896L355.97 154.573C356.112 154.664 356.26 154.734 356.41 154.796C355.49 157.31 354.985 159.995 354.958 162.752C354.799 162.758 354.638 162.775 354.476 162.809L349.624 163.848C348.114 164.171 347.149 165.662 347.472 167.173L348.511 172.025C348.834 173.535 350.325 174.5 351.835 174.177L356.687 173.138C356.848 173.103 357.002 173.053 357.15 172.993C358.335 175.568 359.951 177.865 361.891 179.817C361.78 179.937 361.675 180.062 361.584 180.204L358.907 184.382C358.503 185.012 358.369 185.761 358.529 186.492C358.689 187.223 359.124 187.847 359.754 188.25L363.932 190.927L363.932 190.927C364.578 191.341 365.331 191.455 366.028 191.306C366.733 191.155 367.381 190.734 367.8 190.08L370.477 185.902C370.568 185.761 370.638 185.612 370.7 185.462C373.214 186.382 375.899 186.887 378.656 186.914C378.662 187.074 378.679 187.235 378.714 187.396L379.753 192.248C380.076 193.758 381.567 194.723 383.077 194.4L387.929 193.361C389.439 193.038 390.404 191.547 390.081 190.037L389.042 185.185C389.007 185.024 388.957 184.87 388.897 184.722C391.472 183.537 393.769 181.921 395.721 179.981C395.841 180.092 395.967 180.197 396.108 180.288L400.286 182.965C400.932 183.379 401.686 183.493 402.383 183.344C403.088 183.193 403.736 182.772 404.155 182.118L406.832 177.94C407.665 176.64 407.284 174.905 405.985 174.072L401.807 171.395C401.667 171.305 401.518 171.233 401.368 171.17C402.288 168.656 402.793 165.972 402.819 163.216C402.979 163.21 403.14 163.193 403.301 163.159L408.153 162.12C409.663 161.797 410.628 160.306 410.305 158.796L409.266 153.944C408.941 152.433 407.45 151.468 405.94 151.791ZM381.641 175.844C374.55 177.362 367.546 172.829 366.028 165.738C364.51 158.647 369.043 151.643 376.134 150.125C383.225 148.607 390.229 153.14 391.747 160.231C393.265 167.322 388.731 174.326 381.641 175.844Z" fill="#0f1b63" fill-rule="nonzero" opacity="1" stroke="none" vectornator:layerName="path"/>
</g>
<g id="TEXTS" vectornator:layerName="TEXTS">
<g fill="#ffffff" opacity="1" stroke="none" vectornator:layerName="text">
<path d="M297.49 158.485L287.97 154.865L287.97 152.265L297.49 148.645L297.49 151.145L288.91 154.265L288.91 152.865L297.49 155.985L297.49 158.485Z"/>
<path d="M298.05 162.565L304.65 143.725L307.43 143.725L300.83 162.565L298.05 162.565Z"/>
<path d="M307.79 158.485L307.79 155.985L316.37 152.865L316.37 154.265L307.79 151.145L307.79 148.645L317.31 152.265L317.31 154.865L307.79 158.485Z"/>
</g>
<g fill="#ffffff" opacity="1" stroke="none" vectornator:layerName="text">
<path d="M84.3774 410.377C84.9918 410.377 85.5414 410.499 86.0262 410.744C86.511 410.989 86.8926 411.363 87.171 411.867C87.4494 412.371 87.5886 413.017 87.5886 413.804L87.5886 418.239L85.3422 418.239L85.3422 414.15C85.3422 413.526 85.2054 413.065 84.9318 412.767C84.6582 412.47 84.2718 412.321 83.7726 412.321C83.4174 412.321 83.0982 412.395 82.815 412.544C82.5318 412.693 82.311 412.921 82.1526 413.228C81.9942 413.535 81.915 413.929 81.915 414.409L81.915 418.239L79.6686 418.239L79.6686 407.554L81.915 407.554L81.915 412.638L81.411 411.99C81.6894 411.471 82.0878 411.073 82.6062 410.794C83.1246 410.516 83.715 410.377 84.3774 410.377Z"/>
<path d="M92.787 418.354C91.875 418.354 91.1646 418.122 90.6558 417.656C90.147 417.19 89.8926 416.497 89.8926 415.575L89.8926 408.778L92.139 408.778L92.139 415.546C92.139 415.873 92.2254 416.125 92.3982 416.302C92.571 416.48 92.8062 416.569 93.1038 416.569C93.459 416.569 93.7614 416.473 94.011 416.281L94.6158 417.865C94.3854 418.028 94.1094 418.15 93.7878 418.232C93.4662 418.314 93.1326 418.354 92.787 418.354ZM88.6974 412.393L88.6974 410.665L94.0686 410.665L94.0686 412.393L88.6974 412.393Z"/>
<path d="M105.805 410.377C106.419 410.377 106.964 410.499 107.439 410.744C107.914 410.989 108.289 411.363 108.562 411.867C108.836 412.371 108.973 413.017 108.973 413.804L108.973 418.239L106.726 418.239L106.726 414.15C106.726 413.526 106.597 413.065 106.337 412.767C106.078 412.47 105.713 412.321 105.243 412.321C104.917 412.321 104.624 412.395 104.365 412.544C104.105 412.693 103.904 412.916 103.76 413.214C103.616 413.511 103.544 413.89 103.544 414.351L103.544 418.239L101.297 418.239L101.297 414.15C101.297 413.526 101.17 413.065 100.916 412.767C100.661 412.47 100.299 412.321 99.8286 412.321C99.5022 412.321 99.2094 412.395 98.9502 412.544C98.691 412.693 98.4894 412.916 98.3454 413.214C98.2014 413.511 98.1294 413.89 98.1294 414.351L98.1294 418.239L95.883 418.239L95.883 410.492L98.0286 410.492L98.0286 412.609L97.6254 411.99C97.8942 411.462 98.2758 411.061 98.7702 410.787C99.2646 410.514 99.8286 410.377 100.462 410.377C101.173 410.377 101.794 410.557 102.327 410.917C102.86 411.277 103.213 411.826 103.385 412.566L102.593 412.35C102.853 411.745 103.268 411.265 103.839 410.91C104.41 410.554 105.065 410.377 105.805 410.377Z"/>
<path d="M110.989 418.239L110.989 407.554L113.235 407.554L113.235 418.239L110.989 418.239Z"/>
</g>
<g fill="#ffffff" opacity="1" stroke="none" vectornator:layerName="text">
<path d="M121.409 269.055C121.038 269.055 120.683 269.016 120.344 268.939C120.004 268.862 119.716 268.746 119.479 268.591L120.128 266.847C120.406 267.043 120.745 267.14 121.147 267.14C121.445 267.14 121.684 267.04 121.864 266.839C122.044 266.639 122.134 266.338 122.134 265.936L122.134 257.632L124.542 257.632L124.542 265.921C124.542 266.878 124.27 267.64 123.724 268.206C123.179 268.772 122.407 269.055 121.409 269.055ZM123.338 256.474C122.896 256.474 122.536 256.346 122.258 256.089C121.98 255.831 121.841 255.512 121.841 255.132C121.841 254.751 121.98 254.432 122.258 254.175C122.536 253.917 122.896 253.789 123.338 253.789C123.781 253.789 124.141 253.91 124.419 254.151C124.697 254.393 124.836 254.704 124.836 255.085C124.836 255.487 124.699 255.818 124.427 256.081C124.154 256.343 123.791 256.474 123.338 256.474Z"/>
<path d="M129.559 266.06C128.849 266.06 128.167 265.975 127.514 265.805C126.86 265.635 126.343 265.422 125.962 265.165L126.765 263.436C127.146 263.673 127.596 263.866 128.116 264.015C128.635 264.164 129.147 264.239 129.652 264.239C130.207 264.239 130.601 264.172 130.832 264.038C131.064 263.904 131.18 263.719 131.18 263.482C131.18 263.287 131.09 263.14 130.91 263.042C130.73 262.945 130.49 262.87 130.192 262.818C129.893 262.767 129.567 262.716 129.212 262.664C128.857 262.613 128.499 262.543 128.139 262.456C127.779 262.368 127.449 262.237 127.151 262.062C126.853 261.887 126.613 261.651 126.433 261.352C126.253 261.054 126.163 260.668 126.163 260.194C126.163 259.67 126.315 259.207 126.618 258.805C126.922 258.404 127.362 258.087 127.938 257.856C128.515 257.624 129.204 257.509 130.007 257.509C130.573 257.509 131.149 257.57 131.735 257.694C132.322 257.817 132.811 257.997 133.202 258.234L132.399 259.947C131.998 259.711 131.594 259.549 131.187 259.461C130.781 259.374 130.387 259.33 130.007 259.33C129.472 259.33 129.08 259.402 128.834 259.546C128.587 259.69 128.463 259.875 128.463 260.102C128.463 260.308 128.553 260.462 128.733 260.565C128.913 260.668 129.153 260.75 129.451 260.812C129.749 260.874 130.076 260.928 130.431 260.974C130.786 261.02 131.144 261.09 131.504 261.182C131.864 261.275 132.191 261.406 132.484 261.576C132.777 261.746 133.017 261.977 133.202 262.271C133.387 262.564 133.48 262.947 133.48 263.42C133.48 263.935 133.325 264.39 133.017 264.787C132.708 265.183 132.263 265.494 131.681 265.72C131.1 265.947 130.393 266.06 129.559 266.06Z"/>
</g>
<g fill="#ffffff" opacity="1" stroke="none" vectornator:layerName="text">
<path d="M308.201 396.976C307.071 396.976 306.065 396.746 305.182 396.285C304.299 395.824 303.607 395.184 303.108 394.366C302.608 393.548 302.358 392.62 302.358 391.581C302.358 390.529 302.608 389.598 303.108 388.786C303.607 387.974 304.299 387.338 305.182 386.877C306.065 386.416 307.071 386.186 308.201 386.186C309.305 386.186 310.265 386.416 311.083 386.877C311.901 387.338 312.505 387.997 312.895 388.854L310.538 390.12C310.265 389.627 309.925 389.263 309.516 389.029C309.106 388.796 308.662 388.679 308.181 388.679C307.662 388.679 307.194 388.796 306.779 389.029C306.363 389.263 306.036 389.594 305.795 390.023C305.555 390.451 305.435 390.971 305.435 391.581C305.435 392.191 305.555 392.711 305.795 393.139C306.036 393.568 306.363 393.899 306.779 394.132C307.194 394.366 307.662 394.483 308.181 394.483C308.662 394.483 309.106 394.369 309.516 394.142C309.925 393.915 310.265 393.548 310.538 393.042L312.895 394.327C312.505 395.171 311.901 395.824 311.083 396.285C310.265 396.746 309.305 396.976 308.201 396.976Z"/>
<path d="M317.433 394.503L317.433 385.504L319.946 385.504L319.946 394.503L317.433 394.503ZM314.063 391.191L314.063 388.815L323.335 388.815L323.335 391.191L314.063 391.191Z"/>
<path d="M329.178 394.503L329.178 385.504L331.69 385.504L331.69 394.503L329.178 394.503ZM325.808 391.191L325.808 388.815L335.079 388.815L335.079 391.191L325.808 391.191Z"/>
</g>
<g fill="#ffffff" opacity="1" stroke="none" vectornator:layerName="text">
<path d="M410.522 289.197C410.172 289.197 409.836 289.16 409.514 289.087C409.193 289.014 408.92 288.905 408.696 288.759L409.31 287.108C409.573 287.293 409.894 287.386 410.274 287.386C410.556 287.386 410.783 287.291 410.953 287.101C411.123 286.911 411.209 286.626 411.209 286.246L411.209 278.387L413.488 278.387L413.488 286.231C413.488 287.137 413.229 287.858 412.713 288.393C412.197 288.929 411.467 289.197 410.522 289.197ZM412.348 277.291C411.929 277.291 411.589 277.17 411.326 276.926C411.063 276.683 410.931 276.381 410.931 276.021C410.931 275.66 411.063 275.358 411.326 275.115C411.589 274.871 411.929 274.75 412.348 274.75C412.767 274.75 413.108 274.864 413.371 275.093C413.634 275.322 413.765 275.616 413.765 275.977C413.765 276.357 413.636 276.671 413.378 276.919C413.12 277.167 412.777 277.291 412.348 277.291Z"/>
<path d="M420.412 286.246L420.412 284.712L420.266 284.376L420.266 281.63C420.266 281.143 420.117 280.763 419.82 280.491C419.523 280.218 419.068 280.082 418.454 280.082C418.035 280.082 417.624 280.147 417.22 280.279C416.816 280.41 416.472 280.588 416.19 280.812L415.372 279.22C415.8 278.918 416.317 278.684 416.92 278.519C417.524 278.353 418.138 278.27 418.761 278.27C419.959 278.27 420.889 278.553 421.551 279.117C422.213 279.682 422.544 280.564 422.544 281.761L422.544 286.246L420.412 286.246ZM418.016 286.363C417.402 286.363 416.877 286.258 416.438 286.049C416 285.84 415.664 285.555 415.43 285.194C415.197 284.834 415.08 284.43 415.08 283.982C415.08 283.514 415.194 283.105 415.423 282.755C415.652 282.404 416.015 282.129 416.511 281.929C417.008 281.73 417.656 281.63 418.454 281.63L420.543 281.63L420.543 282.959L418.703 282.959C418.167 282.959 417.799 283.047 417.6 283.222C417.4 283.398 417.3 283.617 417.3 283.88C417.3 284.172 417.415 284.403 417.643 284.573C417.872 284.744 418.186 284.829 418.586 284.829C418.965 284.829 419.306 284.739 419.608 284.559C419.91 284.379 420.129 284.113 420.266 283.763L420.616 284.815C420.451 285.321 420.149 285.706 419.71 285.969C419.272 286.231 418.707 286.363 418.016 286.363Z"/>
<path d="M426.591 286.246L423.289 278.387L425.641 278.387L428.388 285.151L427.219 285.151L430.067 278.387L432.259 278.387L428.943 286.246L426.591 286.246Z"/>
<path d="M437.751 286.246L437.751 284.712L437.605 284.376L437.605 281.63C437.605 281.143 437.457 280.763 437.16 280.491C436.863 280.218 436.407 280.082 435.794 280.082C435.375 280.082 434.963 280.147 434.559 280.279C434.155 280.41 433.812 280.588 433.529 280.812L432.711 279.22C433.14 278.918 433.656 278.684 434.26 278.519C434.864 278.353 435.477 278.27 436.1 278.27C437.298 278.27 438.228 278.553 438.891 279.117C439.553 279.682 439.884 280.564 439.884 281.761L439.884 286.246L437.751 286.246ZM435.355 286.363C434.742 286.363 434.216 286.258 433.778 286.049C433.34 285.84 433.004 285.555 432.77 285.194C432.536 284.834 432.419 284.43 432.419 283.982C432.419 283.514 432.534 283.105 432.763 282.755C432.991 282.404 433.354 282.129 433.851 281.929C434.348 281.73 434.995 281.63 435.794 281.63L437.883 281.63L437.883 282.959L436.042 282.959C435.506 282.959 435.139 283.047 434.939 283.222C434.74 283.398 434.64 283.617 434.64 283.88C434.64 284.172 434.754 284.403 434.983 284.573C435.212 284.744 435.526 284.829 435.925 284.829C436.305 284.829 436.646 284.739 436.948 284.559C437.25 284.379 437.469 284.113 437.605 283.763L437.956 284.815C437.79 285.321 437.488 285.706 437.05 285.969C436.612 286.231 436.047 286.363 435.355 286.363Z"/>
</g>
</g>
</svg>
